<?xml version="1.0" encoding="UTF-8"?>
<svg xmlns="http://www.w3.org/2000/svg" version="1.1" viewBox="0 0 599.8 279.6">
  <!-- Generator: Adobe Illustrator 29.5.1, SVG Export Plug-In . SVG Version: 2.1.0 Build 141)  -->
  <defs>
    <style>
      .st0 {
        fill: #cdcebe;
      }

      .st1 {
        display: none;
      }
    </style>
  </defs>
  <g id="Layer_1" class="st1">
    <path class="st0" d="M132.6,68.9c.3,1.2.3,2.4,0,3.8-.3,1.4-.9,2.7-1.9,3.8-1.5,1.8-2.8,3.6-4,5.4s-2.1,3.4-2.7,4.8c-.7,1.8-1.7,3.7-3,5.6-1.2,2-2.6,3.9-4.2,5.8s-3.2,3.6-5,5c-1.8,1.5-3.5,2.5-5.2,3.1-1.7.6-3.5.7-5.2.3-1.7-.4-3.3-1.2-4.8-2.3-1.5-1.2-2.7-2.6-3.8-4.3-1-1.7-1.7-3.6-1.9-5.7-.2-1.5-.2-2.3,0-2.6s.9,0,1.9.7c1.7,1.2,3.7,1.9,5.8,1.9s4.3-.6,6.5-1.7,4.3-2.9,6.4-5.2c2.1-2.3,3.9-5.2,5.5-8.7.6-1.2.7-2.4.4-3.7-.3-1.3-1-2.4-2.3-3.4-1.1-.8-1.7-1-2-.6-5.7,5.8-10.7,10.7-15.1,14.5s-8.5,6.9-12.3,9.4-7.5,4.3-11.1,5.5c-3.6,1.2-7.3,2-11.4,2.4-1.5.2-3.1.2-4.8,0s-3.3-.7-4.8-1.4c-1.5-.7-2.9-1.5-4.1-2.5s-2.1-2.2-2.7-3.5c-.5-1.2-.7-2.1-.5-2.8.2-.7.7-1,1.6-.8,5.5.8,10.6,1,15.4.6,4.8-.5,9.5-1.7,14.1-3.6,4.6-1.9,9.1-4.6,13.5-8.1,4.4-3.4,8.9-7.7,13.5-12.7.4-.5.6-1.1.6-1.7,0-.6-.3-1-.8-1.2-1-.4-1.9-.3-2.6.5-5.8,5.5-11.1,9.9-15.7,13-4.6,3.1-9.1,5.4-13.5,6.9-1.8.6-3.5.6-5.2,0s-2.8-1.7-3.2-3.1c-.4-.9-.6-1.7-.4-2.2.2-.5.7-.9,1.5-1.1,7-2,12.7-4.3,17.2-7.1,4.5-2.8,8.2-6,11.1-9.6.4-.5.6-1.1.5-1.6s-.4-1-.9-1.2c-.7-.2-1.2-.3-1.7-.2-.4.1-.8.3-1.1.5-5,4-9.8,7.2-14.3,9.7-4.5,2.5-8.3,4-11.3,4.5-1.2.2-2.2.3-3,.4-.8,0-1.5,0-2.1-.4s-1.2-.8-1.6-1.3-.9-1.4-1.3-2.4c-.5-1.2-.6-2-.4-2.6s.9-1,2-1.2c3.7-.7,6.8-1.5,9.4-2.3,2.6-.8,4.9-1.6,6.9-2.6,1.9-.9,3.6-2,5.1-3.3,1.4-1.2,2.8-2.7,4.1-4.2.9-1.2,1.4-1.9,1.3-2.2,0-.3-.4-.5-1.1-.5h-2.4c-1,0-1.8,0-2.4.2-.7.2-1.2.6-1.7,1.1-1.4,1.6-2.6,2-3.6,1.4-1-.6-1.7-2.3-2-5-.1-1-.3-2.7-.5-5-.2-2.3-.4-4.7-.7-7.2-.2-2.5-.4-4.9-.6-7.1-.2-2.2-.3-3.8-.3-4.8-.1-3.3,0-5.8.4-7.5.4-1.7,1-3,1.7-3.9,1.1-1.4,2.1-2.1,3.1-2.3,1-.2,1.9.6,2.6,2.3.1.2.2.4.4.6s.2.2.4.2c2.2.2,3.9.3,5.3.4,1.4,0,2.6,0,3.5,0,3.3-.2,6.4-.3,9.2-.2,2.8.1,5.4.4,7.8.9,2.7.6,4.5.5,5.4-.3,1.2-1.1,2.3-1.6,3.4-1.5,1.1.2,2.1.8,2.9,1.8.9,1.2,1.5,2.5,1.8,4.2.2,1.6.1,3.8-.4,6.6-.2,1-.3,2.5-.5,4.2-.1,1.8-.2,3.6-.4,5.6s-.2,3.8-.3,5.6c0,1.8-.1,3.3-.1,4.3,0,1.8-.3,3.2-.8,4.4s-1.1,2-1.8,2.7-1.6,1-2.5,1.1c-.9.1-1.8,0-2.7-.6-.7-.4-1.3-.7-1.9-.9s-1.2-.3-1.8-.5c-.6,0-1.9-.3-3.7-.5-1.2-.2-1.8,0-1.7.4s.8,1.2,2.5,2.1c2.7,1.6,5.4,3,8.1,4.4,2.8,1.4,5.3,2.5,7.8,3.4,2.4.9,4.6,1.6,6.6,2.1,1.9.5,3.4.7,4.5.7s1.8.3,2.3.9c.5.6,1,1.8,1.5,3.5h0ZM108.5,26.4c-.1-1.5-.3-2.4-.5-2.7-.2-.4-.8-.6-1.6-.9-1.9-.2-3.7-.4-5.6-.5s-3.8-.3-5.9-.3-4.3,0-6.7,0-5.1.2-8,.3c-.6,0-.9.5-.9,1.6v3.9c0,1,.3,1.6.9,1.6,2.1-.1,4.4-.2,6.8-.2,2.4,0,4.8,0,7.2,0,2.4,0,4.8.1,7.1.2s4.4.3,6.2.5c.7,0,1-.5,1-1.6v-1.9h0ZM108.2,37.9c.1-1.2-.2-1.7-.9-1.7-4.9-.2-9.5-.3-13.8-.3s-8.7.2-13.1.5c-.8,0-1.1.6-.9,1.9,0,.4,0,.9,0,1.3v1.3c0,1,.3,1.6.8,1.6,1.9.2,4,.4,6.4.5,2.3,0,4.6.2,6.9.3,2.3,0,4.4.2,6.4.2h4.9c1.6,0,2.5-.6,2.8-1.9,0-.4.1-.9.2-1.6,0-.6.1-1.3.2-2h0Z"/>
    <path class="st0" d="M173.3,64.2c.5,2.6.4,4.4-.1,5.4s-1.5.7-2.7-1c-.6-.8-1.3-2.2-2.1-4.1-.3-.7-.7-.9-1.1-.5-1.2,1.8-2.1,2.9-2.7,3.4-.6.5-1.4,1-2.3,1.4-2,.8-4,1.8-5.9,2.8-1.9,1-3.4,2-4.4,2.8-2.1,1.9-3.7.4-4.7-4.5-.3-1.6-.3-3.1,0-4.6.3-1.5.9-2.6,2-3.2.5-.2,1.1-.9,1.9-2,.8-1.2,2-3,3.6-5.6.5-.8.6-1.6.4-2.2-.2-.6-.6-.7-1.2-.3-.6.4-1.2.8-1.7,1.1-.5.3-1.1.6-1.6.8-1.4.6-2.5.6-3.2,0-.7-.7-1.3-2.2-1.9-4.5-.6-2.6-.7-4.7-.3-6.3.4-1.6,1.4-3,3.1-4.2,4.7-3.7,8.9-11.6,12.4-23.8.7-2.5,1.8-4.1,3.2-4.9,1.4-.7,2.7,0,4.1,2.2,1.4,2.3,2,4.5,1.7,6.6s-1.3,4.2-3,6.3c-1.6,1.9-3.2,4-5.1,6.4-1.9,2.4-3.4,4.5-4.6,6.3-1.7,2.4-2.6,4.4-2.6,5.9,0,1.5.8,2.2,2.2,2,.9,0,1.8-.4,2.7-1,1-.6,1.7-1.2,2.2-2,.8-1.2,1.6-2.4,2.3-3.8.7-1.3,1.2-2.3,1.4-3,1.2-3.3,2.5-5.2,3.9-5.6,1.4-.4,2.6.6,3.5,3,1.2,2.9.8,5.8-1.1,8.8-2.1,3-4.3,5.9-6.6,8.7s-4.4,5.1-6.3,7.1c-1.4,1.5-2,2.6-1.9,3.4.2.8,1.1.9,2.6.4.9-.2,1.8-.6,2.8-1.2,1-.6,2-1.3,3.2-2.2.4-.4.7-1.2.8-2.3.1-1.5.3-2.7.6-3.7.3-1,.8-1.6,1.4-1.8,1-.2,1.8.1,2.5,1s1.1,2.1,1.3,3.5c.1,1.4.3,2.8.6,4.3.3,1.5.6,3.1.9,4.8h0ZM156.3,96.8c.5,2.1.4,3.4-.1,4s-1.5.3-2.8-.9c-.8-.7-1.6-1.6-2.3-2.7-.7-1.1-1.3-2.2-1.9-3.4-.5-1.2-1-2.4-1.3-3.6s-.5-2.3-.6-3.4c-.1-1.8,0-3.3.5-4.7.4-1.3,1.1-2.1,1.9-2.3,2.7-.9,4.1.4,4.4,3.9.2,2.1.5,4.3.8,6.6.4,2.3.8,4.5,1.4,6.6h0ZM165.7,91.6c.5,2.1.5,3.5,0,4.2-.6.7-1.5.5-2.7-.6-1.6-1.5-2.9-3.3-3.9-5.6-1-2.3-1.5-4.5-1.7-6.6-.1-1.9,0-3.5.4-4.9.4-1.4,1-2.3,1.9-2.7,1.2-.3,2.2,0,2.9.7.7.8,1.2,2,1.4,3.5.1,2.1.3,4.1.6,6.1.3,2,.7,4,1.1,5.9h0ZM172,90.3c-.4-.5-.9-1.2-1.5-2.1-.6-.9-1.2-1.9-1.8-3-.6-1.1-1.1-2.3-1.5-3.5s-.7-2.5-.8-3.8c-.2-1.5,0-2.8.3-4.1s1.1-2.1,2.3-2.5c.9-.3,1.7-.1,2.4.6.7.7,1.1,1.8,1.4,3.4.1,1.4.3,3.2.6,5.5s.8,4.4,1.5,6.3c.7,2.1.7,3.5,0,4.2s-1.6.4-2.9-.9h0ZM223.1,95.4c-.2,1.8-.7,3.1-1.6,4.1-.9.9-2.2,1.3-4,1.1-.9,0-2.4-.2-4.7-.2-2.3,0-5,0-8.1,0s-6.4,0-10,0-7.1.1-10.5.2c-.8,0-1.8.1-3,.4s-2.4.7-3.7,1.2c-1.4.6-2.6.8-3.5.6-.9-.3-1.5-.8-1.9-1.6s-.4-1.9-.1-3.2c.2-1.3.8-2.7,1.7-4.2,1.1-1.8,2-2.9,2.9-3.5.9-.6,1.6-.7,2.3-.2.7.4,1.3.7,1.8.8.5,0,1.1.2,1.9.2,1.4,0,2.8-.2,4.2-.2,1.4,0,2.7,0,3.9,0s1.3-.8,1.3-2.5v-7.7c0-.9,0-1.6-.3-2-.2-.4-.6-.5-1.2-.4-.8,0-1.6.1-2.5.4s-2.2.8-4,1.6c-1.2.5-2.2.7-3,.4-.8-.3-1.3-.8-1.6-1.6s-.3-1.8,0-3c.2-1.2.7-2.4,1.5-3.7,1.4-2.3,2.6-3.7,3.7-4.1s1.9-.4,2.7.2c.4.4,1.2.6,2.3.6,1.1,0,1.7-.3,2-.6s.4-.9.4-1.7c-.1-4.4.2-7.5.9-9.3.7-1.8,1.8-2.7,3.3-2.6,1.6.2,2.9,1.3,4,3.2s1.6,4.6,1.7,7.9c0,1.2.1,2.1.3,2.5.2.4.6.6,1.1.6,1.3,0,2.6.2,4,.2s2.9.2,4.5.4c1.9.2,2.5,1.7,2,4.5-.2,1.7-.7,2.8-1.4,3.5s-1.9,1-3.5.9c-1,0-1.9-.2-2.8-.2-.9,0-1.8,0-2.6,0s-.9.2-1.1.5c-.2.3-.4,1-.4,2.2s0,2.5,0,3.8c0,1.3,0,2.6,0,4s0,1.4.3,1.6c.2.2.5.3,1,.3,3.2,0,6.2-.1,9.1,0,2.9,0,5.8.1,8.5.2,1.2,0,2,.3,2.3.9.3.6.4,1.8.2,3.8h0ZM177.3,53.1c1.6-.5,3.4-1.4,5.2-2.7,1.9-1.3,4.3-3.3,7.3-6,.8-.7.8-1.4,0-2-.6-.5-1.2-1-1.8-1.3-.6-.4-1.2-.8-1.9-1.3-1.7-1.3-3.3-2-4.9-2s-1.3-.3-1.7-.9c-.4-.6-.6-1.4-.6-2.3s.2-1.9.6-2.8c.4-.9,1.1-1.7,2-2.4,1.5-1,2.7-1.4,3.7-1.2,1,.3,1.9,1.1,2.9,2.6.3.5.8,1,1.4,1.6.6.5,1.5,1.2,2.7,2,.4.3.9.6,1.4.9s1,.7,1.5,1.2c.8.7,1.6.6,2.2-.3.9-1.2,1.6-2.2,2.3-3.3.6-1,1.3-2.1,2-3.3,1.1-1.8,1.5-3.1,1.2-4s-.9-1.3-2-1.3-2.3,0-3.6,0-2.5.1-3.6.2c-1.1,0-2.2.1-3.1.2-.9.1-1.6.2-2,.3-1.6.4-3.4.9-5.3,1.5-1.9.6-3.4,1.2-4.2,1.8-.9.5-1.6.6-2.2.2-.6-.4-1.1-1-1.4-2s-.4-2-.3-3.3.4-2.5,1-3.8c.5-1,1.1-2,1.8-2.7.7-.8,1.4-1.4,2.2-1.9.7-.5,1.4-.7,2.1-.8.6,0,1.2.1,1.5.6.8.7,1.9,1.1,3.3,1.1,2.2-.1,4.6-.1,7.2,0,2.6,0,5.1.2,7.6.4.6.1,1,0,1.4,0s.9-.5,1.6-1c1.2-.8,2.4-1.2,3.5-1,1.2.2,2.3,1.2,3.2,3.2,1.2,2.3,1.6,4.4,1.4,6.4s-1.3,4.3-3.1,7c-2.5,3.7-4.6,6.9-6.3,9.7-.6.9-.6,1.6,0,1.9,4.3,2.6,8.4,4.6,12.3,6,3.9,1.4,7.6,2.5,11.1,3.2.9.2,1.4.8,1.6,1.9s-.2,2.5-1,4.2c-2.8,5.5-5.4,8.7-7.7,9.4s-4.6-.2-6.8-2.8c-2.5-3.1-4.9-5.8-7-8s-4.5-4.4-7.1-6.6c-.9-.7-1.7-.6-2.4.3-1.9,2.4-4,4.7-6.3,6.9-2.4,2.2-4.9,4.2-7.5,6-.9.6-1.9.9-2.8.9s-1.8-.3-2.6-.9c-2.4-1.7-3.5-3.5-3.5-5.4s1.2-3.3,3.5-4.2h0s0,0,0,0Z"/>
    <path class="st0" d="M321.3,43.7c-.1,1.6-.8,3.3-1.9,5.3-1.1,2-2.8,3.9-5.1,5.6-.9.6-1.7,1.1-2.6,1.4s-1.9.4-3,.2-2.5-.6-4-1.3c-1.5-.7-3.3-1.8-5.4-3.1-1.3-.8-2.8-1.6-4.5-2.2-1.7-.6-4-1.2-6.9-1.9-2.2-.5-4.4-.9-6.8-1s-5.2-.2-8.5,0c-2.9.1-5.7.3-8.6.6-2.9.3-5.7.7-8.4,1.2-2.7.5-5.3,1.2-7.7,2.1-2.4.9-4.6,1.9-6.4,3-1.9,1.2-3.4,1.5-4.7,1.2-1.3-.4-2-1.9-2-4.6,0-.6.1-1.4.3-2.4.2-1,.5-2,1-3,.4-1,.9-2,1.5-2.9.6-.9,1.2-1.7,1.9-2.3,1.6-1.3,2.9-2.2,4.1-2.6s2.3-.3,3.3.2c1.7.8,3.2,1.4,4.3,1.7,1.1.3,2.4.4,3.8.2,2.6-.2,5-.4,7.1-.5,2.1-.2,4.4-.3,6.9-.4,1,0,1.8-.2,2.2-.6.4-.4.7-1.2.8-2.5.2-1.5.3-2.9.3-4.2,0-1.4,0-2.5-.1-3.3-.4-3.1-.7-5.7-.7-7.6s.1-3.4.6-4.5c.4-1,1.1-1.7,2-1.9s2.1-.2,3.6.2c.6.1,1.3.6,2,1.4.7.8,1.3,1.9,1.9,3,.6,1.2,1,2.5,1.4,3.9.3,1.4.5,2.8.3,4.1-.1,1.5-.2,3-.3,4.6,0,1.6,0,3.2,0,4.8s.1,1.6.4,2,.9.6,1.7.7c1.1,0,2.3.2,3.6.2s2.5.1,3.8.2c3.2.2,6.3.4,9.4.5,3.1,0,5.9.2,8.5.3,2.5,0,4.7.2,6.4.2s2.8,0,3.2-.2c.7-.2,1.2,0,1.5.5s.3,1.8.1,3.5h0s0,0,0,0ZM272.1,75.9c-1.5,2.8-3.7,5.7-6.4,8.6s-5.5,5.6-8.4,7.9-5.5,4.2-8,5.5c-2.4,1.3-4.2,1.7-5.1,1.2-1.4-.7-2.3-1.6-2.6-2.7-.3-1,.3-2.1,1.6-3.1,1.5-1.2,2.9-2.3,4.2-3.4,1.3-1.2,2.6-2.4,3.9-3.9,1.3-1.5,2.7-3.1,4.2-4.9,1.4-1.8,3.1-4,4.9-6.5.4-.6.9-1.6,1.4-3s1.1-3.4,1.8-6.1c.2-1.2.6-2.3,1.2-3.1.5-.8,1.2-1.3,1.9-1.4.7,0,1.5.2,2.4.9.9.7,1.8,2,2.9,3.9,1.1,2.1,1.7,3.8,1.8,5s-.5,3-1.7,5.2h0ZM313.2,104c-.5,1-1.2,1.6-2.1,1.8s-1.8-.2-2.6-1c-1.7-1.6-3.2-3.1-4.7-4.5-1.5-1.5-3-3.1-4.6-4.8-1.6-1.7-3.5-3.7-5.5-5.9-2-2.2-4.4-4.9-7.2-8.1-2.2-2.5-3.5-5.1-3.7-7.9-.2-2.8.4-5.6,2-8.5.4-.8,1-1.5,1.6-2,.6-.5,1.3-.8,1.9-.9.6,0,1.2,0,1.7.2.5.3.9.7,1.1,1.3.2.8.5,1.6.7,2.3s.5,1.4.8,2.1.7,1.6,1.1,2.5c.4.9.9,2,1.6,3.3,1,2.1,2.1,4,3.2,5.7,1,1.7,2.2,3.5,3.5,5.3,1.3,1.8,2.8,3.8,4.5,5.9,1.7,2.1,3.8,4.4,6.1,7,.9.9,1.3,1.8,1.4,2.7,0,.9-.2,2-.9,3.4h0s0,0,0,0Z"/>
    <path class="st0" d="M414.7,44.8c-1.5,6.7-3.9,11.3-7.1,13.9-.9.6-1.7,1.1-2.4,1.5-.7.4-1.6.4-2.6.2-1-.2-2.4-.7-4.1-1.5-1.7-.8-3.8-2-6.5-3.5-1.3-.7-2.5-1.3-3.6-1.9-1.1-.5-2.2-.9-3.4-1.2-1.2-.3-2.5-.6-3.9-.8s-3.1-.4-5.1-.6c-.7,0-1.1,0-1.3.3s-.3,1.2-.3,2.8c-.1,7.1-.2,14.2-.3,21.3,0,7.1-.1,13.6-.3,19.6-.1,4.6-.6,7.8-1.4,9.6-.8,1.8-2.1,2.6-4.1,2.3-1.1,0-2-.9-2.6-2.3s-1-4.2-1.1-8.1c-.1-5.6-.2-12.2-.3-19.6s-.1-15.3-.2-23.8c0-1.2-.1-1.8-.3-2.1-.2-.3-.7-.4-1.5-.4-4.3,0-8.2.2-11.8.5s-6.4.9-8.7,1.5c-.8.2-1.6.5-2.3.8-.7.3-1.5.7-2.3,1s-1.7.8-2.6,1.4-2.1,1.2-3.3,2c-1.9,1.2-3.2,1-4.2-.5-.9-1.5-1.2-3.8-.9-6.8.1-1.3.7-2.8,1.7-4.2,1-1.5,2.8-3.3,5.4-5.6.6-.5,1.4-.9,2.3-1s1.8,0,2.7.4c1.4.6,3.1,1.1,4.9,1.4s3.5.4,4.9.2c1.9-.2,4-.4,6.4-.6,2.4-.2,4.9-.4,7.7-.6.7,0,1.2-.3,1.4-.7.2-.4.3-1.2.3-2.6,0-2.1,0-4.3,0-6.8v-7c0-4.4.4-7.4,1.2-8.9.8-1.6,2-2.1,3.6-1.6,1.4.4,2.5.9,3.3,1.6s1.5,1.5,1.9,2.6c.4,1.1.6,2.5.7,4.2,0,1.7.1,3.8,0,6.3,0,1.4,0,2.9,0,4.5,0,1.7,0,3.2,0,4.7s0,2.4.2,2.8.6.6,1.3.6h5.4c1.9,0,3.7,0,5.5.3,4,.2,7.4.4,10.4.5,3,0,5.5.2,7.6.2s3.8,0,5.1-.2c1.3,0,2.3-.2,3.1-.3,1-.2,1.6,0,1.7.7.1.7,0,1.9-.3,3.7h0,0Z"/>
    <path class="st0" d="M500.4,37.5c-.3,1.6-.6,4.2-.9,7.9s-.6,7.9-.9,12.6c-.3,4.7-.5,9.7-.7,14.9-.2,5.2-.4,10.1-.4,14.6-.1,3.8-.5,6.6-1,8.5s-1.4,3.5-2.6,4.6c-.5.5-1.1.9-1.8,1.1-.7.2-1.4.3-2,.3s-1.2,0-1.8-.3c-.5-.2-.9-.5-1.1-.9-.5-.9-.9-1.7-1.2-2.2-.3-.5-.7-.9-1.2-1.2s-1-.5-1.7-.6c-.7,0-1.6-.3-2.7-.5-3-.5-6.3-.9-9.7-1.2s-6.9-.5-10.4-.6c-3.5,0-6.9,0-10.3.2-3.4.2-6.5.4-9.3.9-.4,0-.6.3-.7.9-.6,2-1.4,3.3-2.5,3.9-1.1.6-2.2.6-3.2-.2-.7-.5-1.4-1.3-1.9-2.4-.5-1.1-1-2.7-1.3-4.9s-.6-5-.7-8.5c-.2-3.5-.2-7.9-.2-13.2s0-5.3,0-8.2c0-2.9-.2-5.6-.3-8.3-.2-2.7-.3-5.2-.5-7.5-.2-2.3-.4-4.3-.6-6-.4-3.5-.7-6.4-.9-8.5s-.2-3.8,0-5.1c.1-1.3.5-2.4.9-3.1.5-.8,1.1-1.6,2-2.4,2.7-2.6,4.7-2.3,6,.9.1.5.3.8.6.8,3.5,0,7-.1,10.4-.3s6.2-.4,8.4-.5c2.8-.1,5.2-.2,7.2-.2s3.9,0,5.7.2c1.8.2,3.5.4,5.3.7,1.8.3,3.9.7,6.2,1.2,1.9.4,3.4.7,4.5.9s2,.2,2.8,0c.7-.1,1.4-.4,1.9-.8s1.1-1,1.8-1.9c1.2-1.4,2.2-2,3.1-1.9s2,.8,3.3,2c1.6,1.6,2.6,3.5,2.9,5.8.3,2.3.2,5.1-.4,8.5h0s0,0,0,0ZM451.4,34.6c0-.9-.3-1.4-.9-1.4h-4.3c-1.2,0-2.2,0-3.1,0-.9,0-1.7.1-2.5.2s-1.5.2-2.3.3c-.6.2-.8.7-.8,1.6-.1,3.7-.1,8,0,13.1,0,5.1.2,10.1.3,14.9,0,1.2.3,1.8,1,1.6,4.7-.8,8.1-3.7,10.1-8.5,2-4.8,2.9-12.1,2.5-21.9,0,0,0,0,0,0ZM489.5,71.4c.2-1.9.1-2.9,0-3.1-.2-.2-.7.4-1.5,1.7-1.4,2.5-2.9,4.4-4.3,5.6-1.4,1.2-3.3,1.6-5.7,1.2-2.5-.4-4.9-1.6-6.9-3.6-2.1-2-3.9-4.9-5.3-8.8-1-2.7-1.6-6.5-1.5-11.3,0-4.8.5-10.7,1.4-17.6.2-1.2-.1-1.9-.9-1.9s-1.4,0-2.2,0c-.8,0-1.6,0-2.4,0s-.9.5-.9,1.4c-.1,3-.3,6.2-.6,9.4s-.5,5.8-.8,7.7c-.7,4.5-1.8,8.1-3.2,10.7-1.5,2.7-3,4.9-4.6,6.7-3.5,4-7.1,5.6-10.7,5-.8,0-1.1.5-1,1.9.1,1,.2,2.3.2,3.7s0,2.5.2,3.4c0,.8.4,1.2,1,1.2,3.5-.3,7.4-.6,11.8-.7,4.3-.2,8.5-.2,12.5,0,4,0,7.8.3,11.1.5,3.3.2,5.8.5,7.4.8,1.8.3,3.2.2,4.1-.5,1-.6,1.6-1.9,2-3.9.1-.6.3-1.8.4-3.7.1-1.8.3-3.6.5-5.4h0ZM490.8,44.8c0-3.7-.2-6.1-.6-7.4s-1.5-2.2-3.2-2.7c-.4,0-.8-.2-1.2-.3-.4,0-1-.2-1.9-.2s-2,0-3.5-.2c-1.5,0-3.5-.1-5.9-.2-.2,0-.5.2-.7.6-1.2,3-2,6.2-2.4,9.5s-.4,6.3,0,9c.3,2.2,1.2,4.2,2.7,6,1.5,1.8,3.6,2.8,6.4,3,2.2.2,3.9-.2,5.1-1.1s2.5-2.6,3.7-5c.5-1,.9-2.3,1.2-3.8.3-1.5.4-3.9.4-7.1h0Z"/>
    <path class="st0" d="M562.3,86.6c-1.7,1.2-3.8,2.5-6.5,3.8-2.7,1.3-5.7,2.6-9.2,3.8s-7.2,2.4-11.2,3.5c-4.1,1.1-8.3,2.1-12.8,2.9-2.2.4-3.7.4-4.6,0s-1.6-1.3-2-2.4c-.3-.8-.6-1.8-.7-3-.2-1.2-.2-2.4,0-3.8.2-2.5,1.4-3.8,3.6-3.8,2.6,0,5.4-.3,8.5-.6,3.1-.3,6.2-.7,9.5-1.2.6,0,.9-.6.9-1.6,0-3.7,0-7.6,0-11.7,0-.5-.1-.9-.3-1.1-.2-.2-.7-.3-1.3-.2-2.3.2-4.4.5-6.1.9-1.7.4-3,.9-3.7,1.4-1.5,1-2.8,1.4-3.8,1.2-1.1-.3-1.7-1-1.9-2.3-.2-1.3-.1-2.6.2-3.7s1-2.3,2-3.7c1.6-2,3.1-2.7,4.5-2,.5.2,1.3.3,2.5.4s2.3,0,3.5,0c.4,0,.9-.2,1.5-.2s1.2,0,1.9-.2c.4,0,.7-.5.8-1.6.1-1.5.3-2.7.6-3.7.3-1,.8-1.8,1.6-2.6.9-.7,1.9-1,3.2-.9s2.2.8,2.9,2c.2.4.4,1,.6,1.6.1.7.2,1.8.3,3.2,0,1.2.4,1.7,1.1,1.7,1.4,0,2.8-.2,4.2-.2h4.3c1.1,0,2,.3,2.6.8s.9,1.1.8,1.9c-.1,3.1-1.5,4.8-4,5-1.2,0-2.5.2-3.8.2-1.4,0-2.8.1-4.2.2-.4,0-.7,0-.9.2-.2.2-.2.7-.2,1.5,0,1.4-.1,2.9-.1,4.5s0,3.4,0,5.3.4,2,1.1,1.9c2.5-.5,4.9-1,7.2-1.3,2.3-.4,4.4-.8,6.5-1.3,1.5-.3,2.5.2,2.8,1.5s-.2,2.4-1.4,3.2h0s0,0,0,0ZM562.9,47.5c.1,1.5-.2,2.6-.8,3.3-.7.7-1.7,1.1-3.2,1.1s-2.5,0-4.3,0c-1.8,0-3.6.1-5.6.2s-4,.2-6.1.2c-2.1,0-4.1,0-5.8,0-3.4,0-6.3.2-8.7.7s-4.1,1-5.1,1.5c-1.4.8-2.6,1.3-3.6,1.3-1,0-1.6-.3-1.8-1.2-.4-1.2-.5-2.3-.2-3.6.2-1.2.9-2.6,2.1-4.1,1.6-2,3.1-2.7,4.5-2,.5.2,1.3.3,2.5.4s2.3,0,3.5,0c.6,0,1.5-.2,2.7-.2s2.7,0,4.3,0,.8-.1,1-.4c.2-.3.2-.9.2-2v-7.7c0-.5,0-.9-.2-1-.2-.2-.5-.2-1-.2-2.3.2-4.3.5-5.9.8-1.6.3-2.8.7-3.5,1.2-2.8,2-4.6,1.9-5.2-.2-1-3.1-.6-5.8,1.3-8,1.6-2,3.1-2.7,4.5-2,.5.2,1.3.3,2.5.4s2.3,0,3.5,0c.4-.1.9-.2,1.4-.2h1.8c.3,0,.5-.2.7-.5s.2-.9.2-1.9,0-2.6,0-3.9c0-1.4,0-2.8-.1-4.2,0-1.6.2-2.9.7-4.1.6-1.2,1.2-1.9,2-2,1.4-.1,2.6.1,3.5.7.9.6,1.8,1.6,2.7,3.1.5.8.8,2,.9,3.4.1,1.5,0,3.8-.3,7-.1.8-.1,1.4,0,1.6.1.2.4.3.9.3h7c2.1,0,3.2.9,3.4,2.7.1,1.5,0,2.6-.6,3.3-.5.7-1.5,1.2-3,1.4-1,.1-2.1.2-3.4.3-1.3.1-2.6.2-4,.3-.7,0-1.1.5-1.1,1.6,0,1.4,0,2.7,0,4v4.2c0,.8,0,1.4.2,1.6.2.2.5.3.9.3,2,0,4-.2,5.9-.2h5.6c2.1,0,3.2.9,3.4,2.7h0s0,0,0,0ZM596.9,64.5c1,.6,1.8,1.4,2.3,2.3.5.9.7,1.7.6,2.5,0,.8-.4,1.4-1,1.9-.6.5-1.4.6-2.5.2-1.3-.3-2.8-.8-4.4-1.5-1.6-.7-3.3-1.4-5.1-2.3-1.8-.8-3.6-1.8-5.4-2.8-1.8-1-3.6-2.1-5.2-3.3-.8-.5-1.3-.7-1.5-.4-.2.3-.3,1-.3,2.3,0,6.3,0,12.4.1,18.4s.2,11.2.4,15.7c0,1.5,0,2.7,0,3.8,0,1-.4,2-.8,2.7s-1,1.5-1.8,2.1c-.8.6-1.8,1.2-3.1,1.6-1.6.6-2.7.3-3.3-.9-.6-1.2-.8-3.5-.7-6.8.2-4.4.3-9.2.5-14.6.1-5.3.2-11.2.2-17.6,0-6.4,0-13.5,0-21.2s0-16.2-.2-25.5c0-2.2,0-3.9.1-5.2,0-1.3.3-2.3.6-3.1s.7-1.2,1.2-1.4c.5-.2,1.2-.3,2.1-.2,2.2.2,3.7,1.2,4.7,3.1,1,1.8,1.2,4.8.8,8.8-.1,1.7-.3,4.1-.4,7.4s-.3,7-.4,11.3c0,2,0,3.3.4,4.1s.9,1.6,1.9,2.7c1.3,1.4,2.8,2.8,4.5,4.3,1.7,1.5,3.4,3,5.2,4.4s3.6,2.7,5.4,4c1.8,1.2,3.5,2.3,5.2,3.3h0,0Z"/>
    <path d="M126.8,59.7c.3,1.2.3,2.4,0,3.8-.3,1.4-.9,2.7-1.9,3.8-1.5,1.8-2.8,3.6-4,5.4s-2.1,3.4-2.7,4.8c-.7,1.8-1.7,3.7-3,5.6-1.2,2-2.6,3.9-4.2,5.8s-3.2,3.6-5,5c-1.8,1.5-3.5,2.5-5.2,3.1-1.7.6-3.5.7-5.2.3-1.7-.4-3.3-1.2-4.8-2.3-1.5-1.2-2.7-2.6-3.8-4.3-1-1.7-1.7-3.6-1.9-5.7-.2-1.5-.2-2.3,0-2.6s.9,0,1.9.7c1.7,1.2,3.7,1.9,5.8,1.9s4.3-.6,6.5-1.7,4.3-2.9,6.4-5.2c2.1-2.3,3.9-5.2,5.5-8.7.6-1.2.7-2.4.4-3.7-.3-1.3-1-2.4-2.3-3.4-1.1-.8-1.7-1-2-.6-5.7,5.8-10.7,10.7-15.1,14.5s-8.5,6.9-12.3,9.4-7.5,4.3-11.1,5.5c-3.6,1.2-7.3,2-11.4,2.4-1.5.2-3.1.2-4.8,0s-3.3-.7-4.8-1.4c-1.5-.7-2.9-1.5-4.1-2.5s-2.1-2.2-2.7-3.5c-.5-1.2-.7-2.1-.5-2.8.2-.7.7-1,1.6-.8,5.5.8,10.6,1,15.4.6,4.8-.5,9.5-1.7,14.1-3.6,4.6-1.9,9.1-4.6,13.5-8.1,4.4-3.4,8.9-7.7,13.5-12.7.4-.5.6-1.1.6-1.7,0-.6-.3-1-.8-1.2-1-.4-1.9-.3-2.6.5-5.8,5.5-11.1,9.9-15.7,13-4.6,3.1-9.1,5.4-13.5,6.9-1.8.6-3.5.6-5.2,0-1.7-.7-2.8-1.7-3.2-3.1-.4-.9-.6-1.7-.4-2.2.2-.5.7-.9,1.5-1.1,7-2,12.7-4.3,17.2-7.1,4.5-2.8,8.2-6,11.1-9.6.4-.5.6-1.1.5-1.6s-.4-1-.9-1.2c-.7-.2-1.2-.3-1.7-.2-.4.1-.8.3-1.1.5-5,4-9.8,7.2-14.3,9.7-4.5,2.5-8.3,4-11.3,4.5-1.2.2-2.2.3-3,.4-.8,0-1.5,0-2.1-.4s-1.2-.8-1.6-1.3c-.4-.6-.9-1.4-1.3-2.4-.5-1.2-.6-2-.4-2.6.2-.6.9-1,2-1.2,3.7-.7,6.8-1.5,9.4-2.3,2.6-.8,4.9-1.6,6.9-2.6s3.6-2,5.1-3.3c1.4-1.2,2.8-2.7,4.1-4.2.9-1.2,1.4-1.9,1.3-2.2,0-.3-.4-.5-1.1-.5h-2.4c-1,0-1.8,0-2.4.2-.7.2-1.2.6-1.7,1.1-1.4,1.6-2.6,2-3.6,1.4-1-.6-1.7-2.3-2-5-.1-1-.3-2.7-.5-5-.2-2.3-.4-4.7-.7-7.2-.2-2.5-.4-4.9-.6-7.1-.2-2.2-.3-3.8-.3-4.8-.1-3.3,0-5.8.4-7.5.4-1.7,1-3,1.7-3.9,1.1-1.3,2.1-2.1,3.1-2.3,1-.2,1.9.6,2.6,2.3.1.2.2.4.4.6.1.2.2.2.4.2,2.2.2,3.9.3,5.3.4,1.4,0,2.6,0,3.5,0,3.3-.2,6.4-.3,9.2-.2,2.8,0,5.4.4,7.8.9,2.7.6,4.5.5,5.4-.3,1.2-1.2,2.3-1.6,3.4-1.5,1.1.2,2.1.8,2.9,1.8.9,1.2,1.5,2.5,1.8,4.1.2,1.6.1,3.8-.4,6.6-.2,1-.3,2.5-.5,4.2-.1,1.8-.2,3.6-.4,5.6-.1,1.9-.2,3.8-.3,5.6,0,1.8-.1,3.3-.1,4.3,0,1.8-.3,3.2-.8,4.4s-1.1,2-1.8,2.7-1.6,1-2.5,1.1c-.9.1-1.8,0-2.7-.6-.7-.4-1.3-.7-1.9-.9s-1.2-.3-1.8-.5c-.6,0-1.9-.3-3.7-.5-1.2-.2-1.8,0-1.7.4s.8,1.2,2.5,2.1c2.7,1.6,5.4,3,8.1,4.4,2.8,1.4,5.4,2.5,7.8,3.4,2.4.9,4.6,1.6,6.6,2.1,1.9.5,3.4.7,4.5.7s1.8.3,2.3.9c.5.6,1,1.8,1.5,3.5h0ZM102.7,17.1c-.1-1.5-.3-2.4-.5-2.7-.2-.4-.8-.6-1.6-.9-1.9-.2-3.7-.4-5.6-.6s-3.8-.3-5.9-.3-4.3,0-6.7,0c-2.4.1-5.1.2-8,.3-.6,0-.9.5-.9,1.6v3.9c0,1,.3,1.6.9,1.6,2.1-.1,4.4-.2,6.8-.2,2.4,0,4.8,0,7.2,0,2.4,0,4.8.1,7.1.2s4.4.3,6.2.5c.7,0,1-.5,1-1.6v-1.9h0ZM102.4,28.7c.1-1.1-.2-1.7-.9-1.7-4.9-.2-9.5-.3-13.8-.3s-8.7.2-13.1.5c-.8,0-1.1.6-.9,1.9,0,.4,0,.9,0,1.3v1.3c0,1,.3,1.6.8,1.6,1.9.2,4,.4,6.4.5,2.3,0,4.6.2,6.9.3,2.3,0,4.4.2,6.4.2h4.9c1.6,0,2.5-.6,2.8-1.9,0-.4.1-.9.2-1.6,0-.6.1-1.3.2-2h0Z"/>
    <path d="M167.5,55c.5,2.6.4,4.4-.1,5.4s-1.5.7-2.7-1c-.6-.8-1.3-2.2-2.1-4.1-.3-.7-.7-.9-1.1-.5-1.2,1.8-2.1,2.9-2.7,3.4-.6.5-1.4,1-2.3,1.4-2,.8-4,1.8-5.9,2.8-1.9,1-3.4,2-4.4,2.8-2.1,1.9-3.7.4-4.7-4.5-.3-1.6-.3-3.1,0-4.6.3-1.5.9-2.6,2-3.2.5-.2,1.1-.9,1.9-2,.8-1.2,2-3,3.6-5.6.5-.8.6-1.6.4-2.2-.2-.6-.6-.7-1.2-.3-.6.4-1.2.8-1.7,1.1-.5.3-1.1.6-1.6.8-1.4.6-2.5.6-3.2,0-.7-.7-1.3-2.2-1.9-4.5-.6-2.6-.7-4.7-.3-6.3.4-1.6,1.4-3,3.1-4.2,4.7-3.6,8.9-11.6,12.4-23.8.7-2.5,1.8-4.1,3.2-4.8,1.4-.7,2.7,0,4.1,2.2,1.4,2.3,2,4.5,1.7,6.6-.3,2.1-1.3,4.2-3,6.3-1.6,1.9-3.2,4-5.1,6.4s-3.4,4.5-4.6,6.3c-1.7,2.4-2.6,4.4-2.6,5.9,0,1.5.8,2.2,2.2,2,.9,0,1.8-.4,2.7-1,1-.6,1.7-1.2,2.2-2,.8-1.2,1.6-2.4,2.3-3.8.7-1.4,1.2-2.4,1.4-3,1.2-3.3,2.5-5.2,3.9-5.6,1.4-.4,2.6.6,3.5,3,1.2,2.9.8,5.8-1.1,8.8-2.1,3-4.3,5.9-6.6,8.7s-4.4,5.1-6.3,7.1c-1.4,1.5-2,2.6-1.9,3.4.2.8,1.1.9,2.6.4.9-.2,1.8-.6,2.8-1.2,1-.6,2-1.3,3.2-2.2.4-.4.7-1.2.8-2.3.1-1.5.3-2.7.6-3.7.3-1,.8-1.6,1.4-1.8,1-.2,1.8.1,2.5,1s1.1,2.1,1.3,3.5c.1,1.4.3,2.8.6,4.3.3,1.5.6,3.1.9,4.8h0ZM150.5,87.5c.5,2.1.4,3.4-.1,4s-1.5.3-2.8-.9c-.8-.7-1.6-1.6-2.3-2.7-.7-1.1-1.3-2.2-1.9-3.4-.5-1.2-1-2.4-1.3-3.6s-.5-2.3-.6-3.4c-.1-1.8,0-3.3.5-4.7.4-1.3,1.1-2.1,1.9-2.3,2.7-.9,4.1.4,4.4,3.9.2,2.1.5,4.3.8,6.6.4,2.3.8,4.5,1.4,6.6h0ZM159.9,82.3c.5,2.1.5,3.5,0,4.2-.6.7-1.5.5-2.7-.6-1.6-1.5-2.9-3.3-3.9-5.6s-1.5-4.5-1.7-6.6c-.1-1.9,0-3.5.4-4.9.4-1.4,1-2.3,1.9-2.7,1.2-.3,2.2,0,2.9.7.7.8,1.2,2,1.4,3.5.1,2.1.3,4.1.6,6.1.3,2,.7,4,1.1,5.9h0ZM166.2,81.1c-.4-.5-.9-1.2-1.5-2.1-.6-.9-1.2-1.9-1.8-3-.6-1.1-1.1-2.3-1.5-3.5s-.7-2.5-.8-3.8c-.2-1.5,0-2.8.3-4.1s1.1-2.1,2.3-2.5c.9-.3,1.7-.1,2.4.5.7.7,1.1,1.8,1.4,3.4.1,1.4.3,3.2.6,5.5s.8,4.4,1.5,6.3c.7,2.1.7,3.5,0,4.2s-1.6.4-2.9-.9h0ZM217.3,86.1c-.2,1.8-.7,3.1-1.6,4.1-.9.9-2.2,1.3-4,1.1-.9,0-2.4-.2-4.7-.2-2.3,0-5,0-8.1,0s-6.4,0-10,0-7.1.1-10.5.2c-.8,0-1.8.1-3,.4s-2.4.7-3.7,1.2c-1.4.6-2.6.8-3.5.6-.9-.3-1.5-.8-1.9-1.6s-.4-1.9-.1-3.2c.2-1.3.8-2.7,1.7-4.2,1.1-1.8,2-2.9,2.9-3.5.9-.6,1.6-.7,2.3-.2.7.4,1.3.7,1.8.8.5,0,1.1.2,1.9.2,1.4,0,2.8-.2,4.2-.2,1.4,0,2.7,0,3.9,0s1.3-.8,1.3-2.5v-7.7c0-.9,0-1.6-.3-2-.2-.4-.6-.5-1.2-.4-.8,0-1.6.1-2.5.4s-2.2.8-4,1.6c-1.2.5-2.2.7-3,.4s-1.3-.8-1.6-1.6-.3-1.8,0-3c.2-1.2.7-2.4,1.5-3.7,1.4-2.3,2.6-3.7,3.7-4.1s1.9-.4,2.7.2c.4.4,1.2.6,2.3.6,1.1,0,1.7-.3,2-.6.3-.3.4-.9.4-1.7-.1-4.4.2-7.5.9-9.3.7-1.8,1.8-2.7,3.3-2.6,1.6.2,2.9,1.3,4,3.2s1.6,4.6,1.7,7.9c0,1.2.1,2.1.3,2.5.2.4.6.6,1.1.6,1.3,0,2.6.2,4,.2s2.9.2,4.5.4c1.9.2,2.5,1.7,2,4.5-.2,1.7-.7,2.8-1.4,3.5s-1.9,1-3.5.9c-1,0-1.9-.2-2.8-.2-.9,0-1.8,0-2.6,0s-.9.2-1.1.5c-.2.3-.4,1-.4,2.2s0,2.5,0,3.8c0,1.3,0,2.6,0,4s0,1.4.3,1.6c.2.2.5.3,1,.3,3.2,0,6.2-.1,9.1,0,2.9,0,5.8.1,8.5.2,1.2,0,2,.3,2.3.9.3.6.4,1.8.2,3.8h0,0ZM171.5,43.8c1.6-.5,3.4-1.4,5.2-2.7,1.9-1.3,4.3-3.3,7.3-6,.8-.7.8-1.4,0-2-.6-.5-1.2-1-1.8-1.3-.6-.4-1.2-.8-1.9-1.3-1.7-1.4-3.3-2-4.9-2s-1.3-.3-1.7-.9c-.4-.6-.6-1.4-.6-2.4s.2-1.9.6-2.8,1.1-1.7,2-2.4c1.5-1,2.7-1.4,3.7-1.2,1,.3,1.9,1.1,2.9,2.6.3.5.8,1,1.4,1.6.6.5,1.5,1.2,2.7,2,.4.3.9.6,1.4.9.5.3,1,.7,1.5,1.2.8.7,1.6.6,2.2-.3.9-1.1,1.6-2.2,2.3-3.3.6-1,1.3-2.1,2-3.3,1.1-1.8,1.5-3.1,1.2-4-.2-.9-.9-1.3-2-1.3s-2.3,0-3.6,0-2.5.1-3.6.2c-1.1,0-2.2.1-3.1.2-.9.1-1.6.2-2,.3-1.6.4-3.4.9-5.3,1.5-1.9.6-3.4,1.2-4.2,1.8-.9.5-1.6.6-2.2.2-.6-.4-1.1-1-1.4-2-.3-.9-.4-2-.3-3.3s.4-2.5,1-3.8c.5-1,1.1-2,1.8-2.7.7-.8,1.4-1.4,2.2-1.9.7-.5,1.4-.7,2.1-.8.6,0,1.2.1,1.5.6.8.7,1.9,1.1,3.3,1.1,2.2,0,4.6-.1,7.2,0,2.6,0,5.1.2,7.6.4.6,0,1,0,1.4,0s.9-.5,1.6-1c1.2-.8,2.4-1.2,3.5-1,1.2.2,2.3,1.2,3.2,3.2,1.2,2.3,1.6,4.4,1.4,6.4s-1.3,4.3-3.1,7c-2.5,3.6-4.6,6.9-6.3,9.7-.6.9-.6,1.6,0,1.9,4.3,2.6,8.4,4.6,12.3,6s7.6,2.5,11.1,3.2c.9.2,1.4.8,1.6,1.9s-.2,2.5-1,4.2c-2.8,5.5-5.4,8.7-7.7,9.4s-4.6-.2-6.8-2.8c-2.5-3.1-4.9-5.8-7-8s-4.5-4.4-7.1-6.6c-.9-.7-1.7-.6-2.4.3-1.9,2.4-4,4.7-6.3,6.9-2.4,2.2-4.9,4.2-7.5,6-.9.6-1.9.9-2.8.9s-1.8-.3-2.6-.9c-2.4-1.7-3.5-3.5-3.5-5.4s1.2-3.3,3.5-4.2h0s0,0,0,0Z"/>
    <path d="M315.6,34.5c-.1,1.6-.8,3.3-1.9,5.3-1.1,2-2.8,3.9-5.1,5.6-.9.6-1.7,1.1-2.6,1.4s-1.9.4-3,.2-2.5-.6-4-1.3c-1.5-.7-3.3-1.8-5.4-3.1-1.3-.8-2.8-1.6-4.5-2.2-1.7-.6-4-1.2-6.9-1.9-2.2-.5-4.4-.9-6.8-1s-5.2-.2-8.5,0c-2.9.1-5.7.3-8.6.6s-5.7.7-8.4,1.2c-2.7.5-5.3,1.2-7.7,2.1-2.4.9-4.6,1.9-6.4,3-1.9,1.2-3.4,1.5-4.7,1.2-1.3-.4-2-1.9-2-4.6,0-.6.1-1.4.3-2.4.2-1,.5-2,1-3,.4-1,.9-2,1.5-2.9.6-.9,1.2-1.7,1.9-2.4,1.6-1.4,2.9-2.2,4.1-2.6s2.3-.3,3.3.2c1.7.8,3.2,1.4,4.3,1.7,1.1.3,2.4.4,3.8.2,2.6-.2,4.9-.4,7.1-.5,2.1-.2,4.4-.3,6.9-.4,1,0,1.8-.2,2.2-.6s.7-1.2.8-2.5c.2-1.5.3-2.9.3-4.2,0-1.4,0-2.5-.1-3.3-.4-3.1-.7-5.7-.7-7.6s.1-3.4.6-4.5c.4-1,1.1-1.7,2-1.9s2.1-.2,3.6.2c.6,0,1.3.6,2,1.4.7.8,1.3,1.8,1.9,3.1.6,1.2,1,2.5,1.4,3.9.3,1.4.5,2.8.3,4.2-.1,1.5-.2,3-.3,4.6,0,1.6,0,3.2,0,4.8s.1,1.6.4,2c.3.4.9.6,1.7.7,1.1.1,2.3.2,3.6.2s2.5.1,3.8.2c3.2.2,6.3.4,9.4.5,3.1.1,5.9.2,8.5.3s4.7.2,6.4.2,2.8,0,3.2-.2c.7-.2,1.2,0,1.5.5s.3,1.8.1,3.5h0s0,0,0,0ZM266.3,66.7c-1.5,2.8-3.7,5.7-6.4,8.6-2.7,2.9-5.5,5.6-8.4,7.9s-5.5,4.2-8,5.5c-2.4,1.3-4.2,1.7-5.1,1.2-1.4-.7-2.3-1.6-2.6-2.7-.3-1,.3-2.1,1.6-3.1,1.5-1.2,2.9-2.3,4.2-3.4,1.3-1.2,2.6-2.4,3.9-3.9,1.3-1.5,2.7-3.1,4.2-4.9,1.4-1.8,3.1-4,4.9-6.5.4-.6.9-1.6,1.4-3,.5-1.3,1.1-3.4,1.8-6.1.2-1.2.6-2.3,1.2-3.1.5-.8,1.2-1.3,1.9-1.4.7,0,1.5.2,2.4.9.9.7,1.8,2,2.9,3.9,1.1,2.1,1.7,3.8,1.8,5,0,1.2-.5,3-1.7,5.2h0ZM307.4,94.7c-.5,1-1.2,1.6-2.1,1.8s-1.8-.2-2.6-1c-1.7-1.6-3.2-3.1-4.7-4.5-1.5-1.5-3-3.1-4.6-4.8-1.6-1.7-3.5-3.7-5.5-5.9-2-2.2-4.4-4.9-7.2-8.1-2.2-2.5-3.5-5.1-3.7-7.9-.2-2.8.4-5.6,2-8.5.4-.8,1-1.5,1.6-2,.6-.5,1.3-.8,1.9-.9.6,0,1.2,0,1.7.2.5.3.9.7,1.1,1.3.2.8.5,1.6.7,2.3.2.7.5,1.4.8,2.1s.7,1.6,1.1,2.5c.4.9.9,2,1.6,3.3,1,2.1,2.1,4,3.2,5.7,1,1.7,2.2,3.5,3.5,5.3,1.3,1.8,2.8,3.8,4.5,5.9,1.7,2.1,3.8,4.4,6.1,7,.9.9,1.3,1.8,1.4,2.7,0,.9-.2,2-.9,3.4h0s0,0,0,0Z"/>
    <path d="M408.9,35.6c-1.5,6.7-3.9,11.3-7.1,13.9-.9.6-1.7,1.1-2.4,1.5-.7.4-1.6.4-2.6.2-1-.2-2.4-.7-4.1-1.5-1.7-.8-3.8-2-6.5-3.5-1.3-.7-2.5-1.3-3.6-1.9-1.1-.5-2.2-.9-3.4-1.2-1.2-.3-2.5-.6-3.9-.8s-3.1-.4-5.1-.6c-.7,0-1.1,0-1.3.3s-.3,1.2-.3,2.8c-.1,7.1-.2,14.2-.3,21.3,0,7.1-.1,13.6-.3,19.6-.1,4.6-.6,7.8-1.4,9.6-.8,1.8-2.1,2.6-4.1,2.3-1.1,0-2-.9-2.6-2.3s-1-4.2-1.1-8.1c-.1-5.6-.2-12.2-.3-19.6,0-7.4-.1-15.3-.2-23.8,0-1.2-.1-1.8-.3-2.1-.2-.3-.7-.4-1.5-.4-4.3,0-8.2.2-11.8.5s-6.4.9-8.7,1.5c-.8.2-1.6.5-2.3.8-.7.3-1.5.7-2.3,1s-1.7.8-2.6,1.4-2.1,1.2-3.3,2c-1.9,1.2-3.2,1-4.2-.5-.9-1.5-1.2-3.8-.9-6.8.1-1.3.7-2.8,1.7-4.2,1-1.5,2.8-3.3,5.4-5.6.6-.5,1.4-.9,2.3-1s1.8,0,2.7.4c1.4.6,3.1,1.1,4.9,1.4,1.9.3,3.5.4,4.9.2,1.9-.2,4-.4,6.4-.6,2.4-.2,4.9-.4,7.7-.6.7-.1,1.2-.3,1.4-.7.2-.4.3-1.2.3-2.6,0-2.1,0-4.4,0-6.8v-7c0-4.4.4-7.3,1.2-8.9.8-1.6,2-2.1,3.6-1.6,1.4.4,2.5.9,3.3,1.6s1.5,1.5,1.9,2.6c.4,1.1.6,2.5.7,4.2,0,1.7.1,3.8,0,6.3,0,1.4,0,2.9,0,4.5,0,1.7,0,3.2,0,4.7s0,2.4.2,2.8.6.6,1.3.6h5.4c1.9,0,3.7.1,5.5.3,4,.2,7.4.4,10.4.5,3,.1,5.5.2,7.6.2s3.8,0,5.1-.2c1.3-.1,2.3-.2,3.1-.3,1-.2,1.6,0,1.7.7.1.7,0,1.9-.3,3.7h0,0Z"/>
    <path d="M494.6,28.2c-.3,1.6-.6,4.2-.9,7.9s-.6,7.9-.9,12.6-.5,9.7-.7,14.9c-.2,5.2-.4,10.1-.4,14.5-.1,3.8-.5,6.6-1,8.5-.5,1.9-1.4,3.5-2.6,4.6-.5.5-1.1.9-1.8,1.1-.7.2-1.4.3-2,.3s-1.2,0-1.8-.3c-.5-.2-.9-.5-1.1-.9-.5-.9-.9-1.7-1.2-2.2-.3-.5-.7-.9-1.2-1.2s-1-.5-1.7-.6c-.7,0-1.6-.3-2.7-.5-3-.5-6.3-.9-9.7-1.2s-6.9-.5-10.4-.6c-3.5,0-6.9,0-10.3.2-3.4.2-6.5.4-9.3.9-.4,0-.6.3-.7.9-.6,2-1.4,3.3-2.5,3.9-1.1.6-2.2.6-3.2-.2-.7-.5-1.4-1.3-1.9-2.4-.5-1.1-1-2.7-1.3-4.9s-.6-5-.7-8.5c-.2-3.5-.2-7.9-.2-13.2s0-5.3,0-8.2c0-2.9-.2-5.6-.3-8.3-.2-2.7-.3-5.2-.5-7.5-.2-2.3-.4-4.3-.6-6-.4-3.5-.7-6.4-.9-8.5s-.2-3.8,0-5.1c.1-1.3.5-2.4.9-3.1.5-.8,1.1-1.6,2-2.4,2.7-2.6,4.7-2.3,6,.9.1.5.3.8.6.8,3.5,0,7-.1,10.4-.3s6.2-.4,8.4-.5c2.8-.1,5.2-.2,7.2-.2s3.9,0,5.7.2c1.8.2,3.5.4,5.3.7,1.8.3,3.9.7,6.2,1.2,1.9.4,3.4.7,4.5.9s2,.2,2.8,0c.7-.1,1.4-.4,1.9-.8.5-.4,1.1-1,1.8-1.9,1.2-1.4,2.2-2,3.1-1.9.9.1,2,.8,3.3,2,1.6,1.6,2.6,3.5,2.9,5.8.3,2.3.2,5.1-.4,8.5h0s0,0,0,0ZM445.6,25.4c0-.9-.3-1.4-.9-1.4h-4.3c-1.2,0-2.2,0-3.1,0s-1.7.1-2.5.2-1.5.2-2.3.3c-.6.2-.8.7-.8,1.6-.1,3.6-.1,8,0,13.1,0,5.1.2,10.1.3,14.9,0,1.2.3,1.8,1,1.6,4.7-.8,8.1-3.7,10.1-8.5,2-4.8,2.9-12.1,2.5-21.9h0s0,0,0,0ZM483.8,62.2c.2-1.9.1-2.9,0-3.1-.2-.2-.7.4-1.5,1.7-1.4,2.5-2.9,4.4-4.3,5.6-1.4,1.2-3.3,1.6-5.7,1.2-2.5-.4-4.9-1.6-6.9-3.6-2.1-2-3.9-4.9-5.3-8.8-1-2.7-1.6-6.5-1.5-11.3s.5-10.7,1.4-17.6c.2-1.2-.1-1.9-.9-1.9s-1.4,0-2.2,0c-.8,0-1.6,0-2.4,0s-.9.5-.9,1.4c-.1,3-.3,6.2-.6,9.4s-.5,5.8-.8,7.7c-.7,4.5-1.8,8.1-3.2,10.7-1.5,2.7-3,4.9-4.6,6.7-3.5,4-7.1,5.6-10.7,5-.8,0-1.1.5-1,1.9.1,1,.2,2.3.2,3.7s0,2.5.2,3.4c0,.8.4,1.2,1,1.2,3.5-.3,7.4-.6,11.8-.7,4.3-.2,8.5-.2,12.5,0,4,0,7.8.3,11.1.5,3.3.2,5.8.5,7.4.8,1.8.3,3.2.2,4.1-.5,1-.6,1.6-1.9,2-3.9.1-.6.3-1.8.4-3.7.1-1.8.3-3.6.5-5.4h0ZM485,35.6c0-3.6-.2-6.1-.6-7.4s-1.5-2.2-3.2-2.7c-.4-.1-.8-.2-1.2-.3s-1-.2-1.9-.2-2-.1-3.5-.2c-1.5,0-3.5-.1-5.9-.2-.2,0-.5.2-.7.6-1.2,3-2,6.2-2.4,9.5-.4,3.3-.4,6.3,0,9,.3,2.2,1.2,4.2,2.7,6,1.5,1.8,3.6,2.8,6.4,3,2.2.2,3.9-.2,5.1-1.1s2.5-2.6,3.7-5c.5-1,.9-2.3,1.2-3.8.3-1.5.4-3.9.4-7.1h0Z"/>
    <path d="M556.6,77.3c-1.7,1.2-3.8,2.5-6.5,3.8-2.7,1.3-5.7,2.6-9.2,3.8s-7.2,2.4-11.2,3.5c-4.1,1.1-8.3,2.1-12.8,2.9-2.2.4-3.7.4-4.6,0s-1.6-1.3-2-2.4c-.3-.8-.6-1.8-.7-3-.2-1.2-.2-2.4,0-3.8.2-2.5,1.4-3.8,3.6-3.8,2.6,0,5.4-.3,8.5-.6,3.1-.3,6.2-.7,9.5-1.2.6,0,.9-.6.9-1.6,0-3.7,0-7.6,0-11.7,0-.5-.1-.9-.3-1.1-.2-.2-.7-.3-1.3-.2-2.3.2-4.4.5-6.1.9s-3,.9-3.7,1.4c-1.5,1-2.8,1.4-3.8,1.2-1.1-.3-1.7-1-1.9-2.3-.2-1.3-.1-2.6.2-3.7.3-1.1,1-2.3,2-3.7,1.6-2,3.1-2.7,4.5-2,.5.2,1.3.3,2.5.4s2.3,0,3.5,0c.4,0,.9-.2,1.5-.2s1.2,0,1.9-.2c.4,0,.7-.5.8-1.6.1-1.5.3-2.7.6-3.7.3-1,.8-1.8,1.6-2.6.9-.7,1.9-1,3.2-.9s2.2.8,2.9,2c.2.4.4,1,.6,1.6.1.7.2,1.8.3,3.2,0,1.2.4,1.7,1.1,1.7,1.4,0,2.8-.2,4.2-.2h4.3c1.1,0,2,.3,2.6.8s.9,1.2.8,1.9c-.1,3.1-1.5,4.8-4,5-1.2,0-2.5.2-3.8.2-1.4,0-2.8.1-4.2.2-.4,0-.7,0-.9.2-.2.2-.2.7-.2,1.5,0,1.4-.1,2.9-.1,4.5s0,3.4,0,5.3.4,2,1.1,1.9c2.5-.5,4.9-1,7.2-1.3,2.3-.4,4.4-.8,6.5-1.3,1.5-.3,2.5.2,2.8,1.5s-.2,2.4-1.4,3.2h0ZM557.1,38.2c.1,1.5-.2,2.6-.8,3.3-.7.7-1.7,1.1-3.2,1.1s-2.5,0-4.3,0c-1.8,0-3.6.1-5.6.2s-4,.2-6.1.2c-2.1,0-4.1,0-5.8,0-3.4,0-6.3.2-8.7.7s-4.1,1-5.1,1.5c-1.4.8-2.6,1.3-3.6,1.3-1,0-1.6-.3-1.8-1.2-.4-1.2-.5-2.3-.2-3.6s.9-2.6,2.1-4.1c1.6-2,3.1-2.7,4.5-2,.5.2,1.3.3,2.5.4s2.3,0,3.5,0c.6,0,1.5-.2,2.7-.2s2.7,0,4.3,0,.8-.1,1-.4c.2-.3.2-.9.2-2v-7.7c0-.5,0-.9-.2-1-.2-.2-.5-.2-1-.2-2.3.2-4.3.5-5.9.8-1.6.3-2.8.7-3.5,1.2-2.8,2-4.6,1.9-5.2-.2-1-3.1-.6-5.8,1.3-8,1.6-2,3.1-2.7,4.5-2,.5.2,1.3.3,2.5.4s2.3,0,3.5,0c.4-.1.9-.2,1.4-.2h1.8c.3,0,.5-.2.7-.5.1-.3.2-.9.2-1.9s0-2.6,0-3.9c0-1.4,0-2.8-.1-4.2,0-1.6.2-3,.7-4.2.6-1.2,1.2-1.9,2-2,1.4-.1,2.6.1,3.5.7.9.6,1.8,1.6,2.7,3.1.5.8.8,2,.9,3.4.1,1.5,0,3.8-.3,7-.1.8-.1,1.4,0,1.6.1.2.4.3.9.3h7c2.1,0,3.2.9,3.4,2.7.1,1.5,0,2.6-.6,3.3-.5.7-1.5,1.2-3,1.4-1,.1-2.1.2-3.4.3-1.3.1-2.6.2-4,.3-.7,0-1.1.5-1.1,1.6,0,1.4,0,2.7,0,4v4.2c0,.8,0,1.4.2,1.6.2.2.5.3.9.3,2,0,4-.2,5.9-.2h5.6c2.1,0,3.2.9,3.4,2.7h0s0,0,0,0ZM591.1,55.3c1,.6,1.8,1.4,2.3,2.3.5.9.7,1.7.6,2.5,0,.8-.4,1.4-1,1.9-.6.5-1.4.5-2.5.2-1.3-.3-2.8-.8-4.4-1.5-1.6-.7-3.3-1.4-5.1-2.3-1.8-.8-3.6-1.8-5.4-2.8-1.8-1-3.6-2.1-5.2-3.3-.8-.5-1.3-.7-1.5-.4-.2.3-.3,1-.3,2.3,0,6.3,0,12.4.1,18.4s.2,11.2.4,15.7c0,1.5,0,2.7,0,3.8,0,1-.4,2-.8,2.7s-1,1.5-1.8,2.1c-.8.6-1.8,1.2-3.1,1.6-1.6.6-2.7.3-3.3-.9-.6-1.2-.8-3.5-.7-6.8.2-4.4.3-9.2.5-14.6.1-5.3.2-11.2.2-17.6,0-6.4,0-13.5,0-21.2s0-16.2-.2-25.5c0-2.2,0-3.9.1-5.2,0-1.3.3-2.3.6-3,.3-.7.7-1.2,1.2-1.4.5-.2,1.2-.3,2.1-.2,2.2.2,3.7,1.2,4.7,3,1,1.8,1.2,4.8.8,8.8-.1,1.7-.3,4.1-.4,7.4-.2,3.2-.3,7-.4,11.3,0,2,0,3.3.4,4.1s.9,1.6,1.9,2.7c1.3,1.4,2.8,2.8,4.5,4.3,1.7,1.5,3.4,3,5.2,4.4,1.8,1.4,3.6,2.7,5.4,4s3.5,2.3,5.2,3.3h0,0Z"/>
  </g>
  <g id="_x38_">
    <path d="M545.9,245.9c-.6.7-1.3,1.4-2,2-.7.6-1.5,1.3-2.4,1.9-.9.6-2,1.3-3.1,2s-2.6,1.4-4.1,2.1c-.8.4-1.5.5-2.1.5-.7,0-1.2-.4-1.8-1-.9-1.1-1.2-2-.8-2.9.3-.9,1.4-1.5,3.1-2.1.6-.2,1.2-.4,1.7-.6.6-.2,1.2-.4,1.9-.6.4-.1.7-.3.8-.5s.2-.7.2-1.5v-6.1c0-.4,0-.6-.2-.7s-.3-.2-.6-.2c-.5,0-1.1.1-1.7.3s-1.1.4-1.6.6c-.5.3-1,.5-1.4.4-.4,0-.6-.3-.8-.6-.2-.3-.2-.6-.2-1.1,0-.4.2-.9.5-1.3.8-1.1,1.4-1.8,1.8-2.1.4-.3.8-.4,1.1-.2.3,0,.6.2,1,.2s.7.1,1,.1c.4,0,.7,0,.8-.2.1-.1.2-.4.2-.7v-6.2c0-.6,0-1.1,0-1.5,0-.4.2-.7.4-.9.2-.2.5-.4.8-.5.3-.1.8-.2,1.3-.3.9-.1,1.6.4,2,1.5s.5,2.6.2,4.5c0,.3,0,.7,0,1.2,0,.5,0,1-.2,1.6,0,.7,0,1.1,0,1.3s.3.3.7.3h1.6c.4,0,.8.2,1,.5.3.3.4.6.4,1,0,.4,0,.7-.3,1.1-.2.3-.6.5-1.1.6-1.1,0-1.8.2-2.2.5s-.6.8-.7,1.6c0,.5,0,1.2,0,1.9v2c0,.8.1,1.3.3,1.5.2.2.6.2,1,0,.3,0,.6-.2,1-.3.3-.1.7-.2,1.1-.3.7-.2,1.1-.2,1.3.1.2.3,0,.6-.3,1.1h0s0,0,0,0ZM573.2,234.9c0,1.9-.2,3.7-.3,5.6,0,1.9-.2,3.6-.2,5.2,0,.6,0,1.2-.3,1.7s-.4,1.1-.7,1.6c-.3.5-.6.8-1,1.1-.4.3-.9.4-1.3.4-1.3,0-2.3-.4-3-.9-.2-.1-.4-.2-.7-.3-.3,0-.6,0-.9,0-1,0-1.7.1-1.9.3-.3.2-.4.8-.3,1.7,0,1.2,0,2.4,0,3.7s0,2.5.1,3.8c0,1.5,0,2.5-.4,3.2s-1,1.1-2.1,1.3c-1.1.2-1.8.1-2.1-.3-.3-.4-.4-1.1-.3-2.3,0-1.4.1-2.9.1-4.5,0-1.6,0-3.3.1-5,0-.9,0-1.4-.2-1.6-.2-.2-.6-.3-1.2-.3s-1,0-1.7,0c-.7,0-1.3,0-1.8,0-.3,0-.6,0-.7.1-.2.1-.4.3-.7.5-.4.2-1,.4-1.8.3-.7,0-1.3-.4-1.7-1.1-.4-.7-.6-1.6-.6-2.6,0-.7,0-1.6,0-2.9s0-2.6-.1-4c0-1.4-.1-2.7-.2-3.8,0-1.2-.1-2-.2-2.5,0-.7,0-1.3.2-1.7.2-.4.5-.8,1.1-1.1.8-.3,1.6-.2,2.4.4.2.2.5.3.6.4s.5,0,.8,0c.7,0,1.4,0,2.3,0h2.2c.4,0,.7,0,.8-.3s.2-.6.2-1.1v-1.8c0-.7,0-1.3,0-1.8v-1.2c0-.4,0-.7.2-1s.3-.6.6-.7c.3-.2.7-.3,1.2-.3,1.2,0,2,.3,2.4,1s.6,1.7.5,3c0,.3,0,.8,0,1.3,0,.5,0,1,0,1.4,0,.6,0,1,0,1.1s.4.3.9.3h2.8c.3,0,.6,0,.9,0s.7-.1,1.2-.3c.8-.2,1.3-.3,1.8-.3.4,0,.9.2,1.4.6.3.2.6.4.8.6.2.2.3.5.4.7,0,.3.2.6.2,1.1s0,.9,0,1.6h0s0,0,0,0ZM558.1,235.8c0-.4,0-.8,0-1,0-.3-.2-.5-.4-.6-.2-.1-.5-.2-1-.2s-1,0-1.8,0c-1.1,0-1.8.2-2.2.5-.3.2-.5.8-.5,1.6s.2,1.6.5,1.8c.3.2,1.1.3,2.2.3.7,0,1.3,0,1.7,0s.8-.2,1-.3c.2-.2.4-.4.4-.7,0-.3,0-.7,0-1.2h0ZM558.1,243.6c0-.5,0-1,0-1.3s-.2-.6-.4-.7c-.2-.2-.5-.3-.9-.4s-1,0-1.7,0c-1.2,0-1.9.1-2.3.4-.3.3-.5,1-.5,2.1s.2,1.9.5,2.2,1.1.4,2.3.3c.7,0,1.2,0,1.6-.2s.7-.2.9-.3c.2-.2.3-.4.4-.7s0-.8,0-1.3h0ZM568.2,244.2c0-1.4,0-2.3,0-2.6s-.4-.5-1-.5-1.1,0-1.7,0c-.6,0-1.2,0-1.8,0s-.9.1-1,.3c-.1.2-.2.8-.2,1.8s0,2.1.2,2.4c.2.3.5.4,1.1.4h2.9c.5,0,.9-.1,1.1-.4s.3-.7.4-1.3h0ZM568.6,235.1c0-.5,0-.9-.3-1.1-.2-.2-.5-.3-1-.3s-1,0-1.6,0h-1.8c-.7,0-1.1.1-1.3.3-.2.2-.2.8-.2,1.8s0,1.7.2,1.9c.2.2.6.3,1.2.3h3.1c.3,0,.6,0,.8,0,.2,0,.4-.2.5-.4,0-.2.2-.5.2-.9,0-.4,0-.9,0-1.6h0Z"/>
    <path d="M541.8,276.1c0,1.2,1.2,1.9,3.6,1.9s3.9-.2,5-.6v1.1c-1,.3-2.9.5-5,.5s-4.7-1-4.7-2.8.2-1.4.3-2h1.1c-.2.7-.3,1.2-.3,1.8h0ZM545.5,268.7c1.4,0,2.8,0,3.9-.2v1.1c-1,0-2.6.2-3.9.2s-2.7,0-3.9-.2v-1.1c1.1.1,2.4.2,3.9.2Z"/>
    <path d="M562.9,268.6c-.7,1-2.1,3.6-2.8,5,.7-.7,1.5-1,2.3-1s1.7.6,1.7,1.8c0,.9,0,2,0,2.8,0,.8.6,1.1,1.2,1.1,1.7,0,2.7-2.1,3.1-3.6l.9.7c-.8,2.3-2,4-4.1,4s-2-1-2.1-1.8c0-.9,0-2,0-2.8,0-.7-.4-1.1-1.1-1.1-1.2,0-2.4,1.2-3,2.4-.5.9-1.1,2.6-1.3,3.4l-1.1-.4c1.1-3,4.3-9,5.2-10.4.2-.3.3-.7.5-1.1l1.2.5c-.1.2-.3.4-.5.7h0Z"/>
  </g>
  <g id="_x37_">
    <path d="M501.9,255.4c-.5.9-1.1,1.8-2,2.6-.8.8-1.9,1.6-3.3,2.3-.6.3-1.3.5-2.1.6s-1.6-.1-2.5-.5c-.9-.4-2-.9-3.3-1.7s-2.7-1.8-4.3-3.1c-.3-.2-.7-.5-1.1-.8-.4-.3-.9-.6-1.4-1s-1-.7-1.5-1.1-1-.7-1.5-1c-.3-.2-.6-.2-.8.2-1.1,1.7-2.2,3.1-3.3,4.2s-2.2,1.8-3.3,2.3c-.7.3-1.3.6-1.9,1s-1.2.8-2,1.4c-2,1.4-3.8,1.1-5.6-.9-.7-.8-1.1-1.7-1.1-2.7,0-1,.4-2.1,1.2-3.5.3-.5.6-1.4.8-2.4.2-1.1.4-2.4.6-3.8.1-1.4.2-2.9.3-4.5,0-1.6,0-3.2,0-4.8,0-1.6-.2-3.1-.3-4.4-.2-1.4-.4-2.6-.7-3.6-.4-1.4-.5-2.6-.2-3.4s.8-1.5,1.8-2c.6-.3,1.2-.4,1.9-.2.7.2,1.3.7,1.8,1.4.2.3.4.5.7.5,3.3-.2,6.1-.3,8.4-.3,2.3,0,3.9,0,5,.2,1.2.1,2.4.1,3.6,0s1.9-.3,2.2-.5c1.1-.8,2.3-.8,3.4,0,1.2.9,1.7,2.4,1.4,4.3-.1.6-.2,1.8-.3,3.6,0,1.8,0,3.8,0,6,0,1.1,0,1.9,0,2.6,0,.7-.2,1.2-.3,1.6-.1.4-.3.6-.5.7-.2.1-.4.2-.6.1-1.1-.2-1.2.2-.5,1.2.6.8.8,1.5.7,2.1-.1.5-.5.8-1.2.8s-1.6,0-2.1.2c-.5.1-1,.2-1.4.4-.5.2-.7.4-.7.6,0,.2.2.4.7.6,1.8.7,3.3,1.3,4.6,1.7,1.4.4,2.6.8,3.7,1s2.2.3,3.2.4c1,0,2.1,0,3.2,0,.5,0,.9.1,1.1.5.2.4.1.8-.1,1.4h0ZM486,245.9c.3-.4.5-.8.4-1.1s-.3-.5-.7-.6c-1.3-.2-2.7-.4-4.2-.5-1.5-.1-3-.2-4.4-.3s-3,0-4.4,0-2.8,0-4,0c-.3,0-.5.2-.5.7,0,1.3,0,2.7-.1,4s0,2.5-.1,3.4c0,1.3,0,2.1.4,2.4s1.1.3,2.2,0c1.1-.3,2-.7,2.9-1.3s1.7-1.3,2.6-2.1c.3-.3.3-.6,0-.8-1.3-.8-2.3-1.3-2.9-1.6s-1.2-.4-1.7-.4c-.4,0-.7-.2-.9-.6-.1-.3,0-.7.2-1.2.4-.7.9-1.1,1.7-1.1.8,0,2,.4,3.7,1.3,1.2.6,2.3,1.2,3.4,1.7,1.1.5,1.8.9,2.1,1.1.2.1.4.2.7.1.2,0,.6-.2,1.1-.6.6-.4,1.1-.8,1.5-1.3s.8-.9,1.1-1.3h0s0,0,0,0ZM487.3,238.2c0-.9,0-1.4,0-1.7,0-.2-.2-.4-.4-.4-1.6,0-3.1,0-4.5,0-1.4,0-2.8,0-4.2,0s-2.8,0-4.2,0c-1.4,0-2.9,0-4.5.1-.5,0-.8.1-1,.4s-.3.8-.3,1.6,0,1.2.3,1.4.5.3,1,.3h14.7c.6,0,1.2,0,1.6,0,.4,0,.7-.2.9-.3s.3-.3.4-.5.1-.5.1-.8h0ZM487.4,232c0-1.4-.2-2.2-.5-2.5-.2-.3-.6-.5-1.2-.6-1.1,0-2.2,0-3.3,0s-2.3,0-3.6,0c-1.3,0-2.7,0-4.2.1-1.5,0-3.2.1-5.1.3-.4,0-.6.2-.8.4s-.3.8-.3,1.7c0,.7,0,1.2.1,1.4.1.2.4.3.8.3,3.5,0,6.6,0,9.6,0,2.9,0,5.7,0,8.2,0,.3,0,.4-.4.4-1.1h0Z"/>
    <path d="M465.9,276.2c0,1.2,1.2,2,3.6,2s3.9-.2,5-.6v1.1c-1,.3-2.9.5-5,.5s-4.7-1-4.7-2.8.2-1.4.3-2h1.1c-.2.7-.3,1.2-.3,1.8ZM469.6,268.9c1.4,0,2.9-.1,3.9-.2v1.1c-1,0-2.6.2-3.9.2s-2.7,0-3.9-.2v-1.1c1,.1,2.4.2,3.9.2ZM475.2,269l-.7.3c-.3-.6-.8-1.5-1.2-2l.7-.3c.4.5.9,1.4,1.2,2h0ZM476.8,268.5l-.7.3c-.3-.6-.8-1.5-1.2-2l.7-.3c.4.5,1,1.5,1.2,2h0Z"/>
    <path d="M487.2,268.6c-.6,1-2.1,3.6-2.8,5,.7-.7,1.5-1,2.3-1s1.7.6,1.7,1.8c0,.9,0,2,0,2.8,0,.8.6,1.1,1.2,1.1,1.7,0,2.7-2.1,3.1-3.6l.9.7c-.8,2.3-2,4-4.1,4s-2-1-2.1-1.8c0-.9,0-2,0-2.8,0-.7-.4-1.1-1.1-1.1-1.2,0-2.4,1.2-3,2.4-.5.9-1.1,2.6-1.3,3.4l-1.1-.4c1.1-3,4.3-9,5.1-10.4.2-.3.3-.7.5-1.1l1.2.5c-.1.2-.3.4-.5.7h0Z"/>
  </g>
  <g id="_x36_">
    <path d="M398,235.4c0,.6-.1,1.1-.4,1.3s-.7.4-1.3.5c-.5,0-1,.1-1.6.2-.5,0-1,0-1.5.1-.4,0-.6.1-.7.3-.1.2-.2.5-.2.9,0,.8,0,1.7,0,2.7,0,.9,0,2,0,3.2,0,.6.1,1,.4,1.1.3,0,.6,0,1,0,.7-.2,1.4-.3,2-.5.7-.2,1.4-.4,2.2-.6.3,0,.6,0,.9.2.3.2.4.5.4.9s-.1.8-.5,1.3c-.3.5-1,.9-1.9,1.3-.6.2-1.2.5-1.7.7-.5.2-1.1.4-1.6.6-.5.2-1.1.4-1.7.6-.6.2-1.2.4-2,.7-1,.3-2.2.8-3.4,1.3s-2.4,1-3.4,1.6c-1.3.7-2.4.8-3.4.4-.9-.4-1.5-1-1.7-1.9-.3-1.1-.2-1.9.2-2.4s.9-.9,1.5-1c1.3-.3,2.5-.6,3.7-.8s2.5-.5,3.8-.9c.4,0,.7-.2.8-.4,0-.2.1-.5.1-1,0-1.1,0-2.2,0-3.2s0-2.1,0-3c0-.6-.1-1-.3-1.2s-.6-.3-1.3-.2c-.4,0-1,.1-1.6.2-.6.1-1.1.2-1.5.3-.5.2-1,.2-1.4.1-.4-.1-.7-.3-.9-.6s-.3-.7-.4-1.1c0-.4,0-.9.3-1.3.6-1.2,1.1-1.9,1.7-2.1.6-.2,1.1-.1,1.6.2.2.2.7.2,1.6.2s1.3,0,1.5-.2c.2-.1.2-.5.1-1.1,0-.5,0-1,0-1.6s0-1.1,0-1.6c-.1-2.1,0-3.5.6-4.1s1.4-.7,2.5-.4c1,.3,1.6,1,1.9,1.9s.2,2.1.1,3.4c0,.3,0,.7-.1,1.2,0,.5,0,.9-.1,1.3,0,.5,0,.8.1,1,.1.1.3.2.6.3.5,0,1,0,1.6,0s1.2,0,1.8,0c.5,0,.9.2,1.1.4.2.2.3.5.3.8h0s0,0,0,0ZM426.9,255.5c-.6,1.1-1.4,2.1-2.5,3.1s-2.3,1.8-3.7,2.4c-.7.3-1.4.3-2.2,0-.8-.2-1.5-.9-2.3-2-1-1.3-1.8-2.4-2.5-3.4-.7-1-1.4-1.9-2-2.9-.7-.9-1.4-2-2.2-3.1-.8-1.1-1.8-2.4-2.9-4-.2-.3-.4-.4-.5-.4s-.2.2-.4.6c-.8,1.9-1.9,3.9-3.2,5.9-1.3,2-2.8,3.8-4.4,5.4-.6.6-1.1,1-1.7,1.4-.5.4-1.1.7-1.6.9-.6.2-1.2.3-1.8.4-.6,0-1.4,0-2.2,0-1.2,0-2.3-.4-3.1-.8-.9-.5-1.4-1-1.8-1.7-.2-.5-.3-.8-.1-1.1.1-.3.6-.5,1.3-.6,1,0,2.1-.3,3.2-.6,1.2-.4,2.3-.8,3.5-1.4,1.1-.6,2.2-1.2,3.3-1.9,1.1-.7,2-1.6,2.7-2.5,1.4-1.7,2.5-3.6,3.1-5.5.6-1.9.8-3.7.5-5.4-.1-.9-.5-1-1.1-.4-1.2,1.2-2.6,2.4-4.3,3.7-.6.5-1.2.7-2,.7s-1.3-.1-1.7-.5c-.5-.4-.7-.8-.7-1.1s.3-.6.9-1c.9-.5,1.7-1.2,2.6-2.1.9-.9,1.8-1.9,2.6-3.1.9-1.2,1.7-2.6,2.4-4.1.8-1.6,1.4-3.2,2-5.1.3-1.1.7-1.7,1.3-1.9.5-.2,1.1-.1,1.9.3.2.1.4.3.6.6.2.3.3.7.4,1.1.1.4.2.9.3,1.4s0,.9,0,1.4c0,.6,0,.9,0,1.1,0,.2.3.3.7.4,1.3.3,2.3.6,3.2.7s1.6.2,2.3.3c.4,0,.8,0,1.2,0s.9,0,1.2-.1c1.2-.2,2.1,0,2.7.4.6.5,1,1,1,1.7.2,1.2,0,2.3-.5,3.3-.6.9-1.3,1.7-2.2,2.2-.9.5-1.6.9-2.4,1.2-.7.3-1.5.6-2.3.8s-1.6.4-2.6.6-2,.4-3.3.5c-.3,0-.4.1-.5.2,0,0-.1.3-.2.6,0,.2,0,.5,0,.6,0,.2.2.4.5.6,2,1.3,3.9,2.5,5.5,3.4s3.2,1.8,4.6,2.6c1.5.7,2.9,1.4,4.3,2.1,1.4.6,2.9,1.3,4.5,1.9.5.2.7.5.8.8s0,.7-.4,1.3h0s0,0,0,0ZM413,236.6c.4-.3.5-.8.5-1.3,0-.5-.3-.9-.7-1.1-1-.4-2.9-.7-5.7-1.1-.4,0-.7,0-1,.2s-.5.4-.7.8c-.3.4-.4.7-.4.8,0,.1.1.2.3.3.6.3,1.1.6,1.4,1.1.3.4.5,1.1.6,2.1,0,.6.1,1,.2,1.1s.2,0,.5,0c1-.4,1.9-.9,2.9-1.4.9-.5,1.6-1,2.1-1.5Z"/>
    <path d="M393.1,268.1c0,.4-.2,1.4-.4,2.2.7,0,1.4-.1,1.7-.1,1.3,0,2.3.5,2.3,2.4s-.2,4.1-.9,5.3c-.5,1-1.2,1.2-2.1,1.2s-1.3-.1-1.7-.2l-.2-1.1c.6.2,1.4.3,1.8.3s1-.1,1.3-.8c.5-1,.7-3,.7-4.6s-.6-1.6-1.6-1.6-1,0-1.7.1c-.5,2.1-1.5,5.4-3.1,7.9l-1.1-.4c1.5-2,2.6-5.4,3.1-7.4-.8,0-1.6.2-2,.2-.3,0-.9.1-1.3.2v-1.1c.3,0,.7,0,1.2,0,.5,0,1.4,0,2.3-.2.2-1.1.4-2.2.4-3.2h1.2c0,.4-.1.7-.2.9h0ZM401,274.2l-1,.5c-.4-1.5-1.6-4.1-2.6-5.3l1-.4c.9,1.2,2.2,3.9,2.7,5.2h0Z"/>
    <path d="M411.6,268.6c-.6,1-2.1,3.6-2.8,5,.7-.7,1.5-1,2.3-1s1.7.6,1.7,1.8c0,.9,0,2,0,2.8,0,.8.6,1.1,1.2,1.1,1.7,0,2.7-2.1,3.1-3.6l.9.7c-.8,2.3-2,4-4.1,4s-2-1-2.1-1.8c0-.9,0-2,0-2.8,0-.7-.4-1.1-1.1-1.1-1.2,0-2.4,1.2-3,2.4-.5.9-1.1,2.6-1.3,3.4l-1.1-.4c1.1-3,4.3-9,5.1-10.4.2-.3.3-.7.5-1.1l1.2.5c-.1.2-.3.4-.5.7h0Z"/>
  </g>
  <g id="_x35_">
    <path d="M350.4,251c-.6.8-1.2,1.4-1.8,1.9-.6.5-1.3.9-2,1.2-.9.3-1.8.5-2.7.5s-2-.2-3-.6c-2.2-.8-4.2-1.4-6.2-1.8-2-.4-4-.6-6.1-.7-1.5,0-3.2,0-5.1,0-1.9,0-3.8,0-5.6,0-1.8,0-3.5,0-4.9.1s-2.5.2-3.2.3c-1.2.2-2.2.4-3,.6-.8.2-1.6.4-2.4.8-.5.2-.9.3-1.3.2-.4,0-.7-.2-.9-.4-.2-.2-.3-.5-.3-.8,0-.3,0-.7.3-1,1-1.3,2-2.2,3-2.6s1.9-.5,2.4-.2c.3.1.6.2,1.1.3s1.3,0,2.5,0,1.2,0,1.9,0c.7,0,1.5,0,2.3,0s1,0,1.1-.2c.2-.2.2-.6.1-1.2,0-.6-.1-.9-.2-1.1-.1-.1-.3-.2-.7-.2h-1.9c-1.2,0-2.1,0-3,0-.8,0-1.5.1-2,.2-.6,0-1,0-1.4-.2-.3-.2-.5-.5-.6-.8s0-.7.2-1.1c.2-.4.6-.7,1.1-1,.4-.2.8-.4,1.1-.6.3-.1.6-.2.9-.2s.6,0,.9,0,.6,0,1,.2c.3.1,1.5.2,3.4.2s.7,0,.8-.1.2-.3.2-.7c0-1,.3-1.7,1-2,.7-.4,1.6-.4,2.7,0,.5.1.9.4,1.1.7.3.3.4.9.5,1.6,0,.4.2.6.6.6s1.1,0,1.6,0c.5,0,1.1,0,1.7,0,.5,0,1,0,1.4,0h1.4c.3,0,.6,0,.6,0s.1-.2.1-.3c0-1,.3-1.7,1-2,.7-.4,1.6-.4,2.7,0,.5.1.9.4,1.1.7.3.3.4.9.5,1.6,0,.2.1.3.5.3.8,0,1.6,0,2.4,0,.8,0,1.6,0,2.4,0,1.6,0,2.7.2,3.2.5s.7.6.6,1c0,.3-.1.5-.3.7-.1.2-.3.3-.5.5s-.6.2-1,.3-.9,0-1.6,0h-2.4c-.8,0-1.6,0-2.4,0-.4,0-.7,0-.8.2-.1.1-.1.5-.1,1.1s0,1.1.2,1.2c.1.1.4.2.9.2,2,0,3.6,0,5,0,1.4,0,2.5,0,3.5,0,1,0,1.8,0,2.5,0s1.4,0,2.1,0c1.8,0,2.2.7,1.3,2h0,0ZM321.7,253.5c.5.6.7,1.2.6,1.9-.2.7-1,1.5-2.4,2.4-1,.6-1.9,1.1-2.7,1.5s-1.6.8-2.4,1c-.8.3-1.5.5-2.3.6-.8.1-1.6.2-2.4.3-.6,0-1.1,0-1.4-.1s-.6-.3-.7-.5c-.1-.2-.1-.4,0-.6.1-.2.3-.4.6-.5,1.5-.7,2.9-1.5,4.2-2.4s2.4-1.9,3.6-3.1c.8-.8,1.7-1.3,2.7-1.3,1,0,1.9.3,2.6,1h0ZM309.3,235.3c0-.2,0-.5,0-.9s0-.8,0-1.2,0-.8,0-1.2,0-.7.1-1c0-.6.1-1.3.1-2.1s0-1.5-.1-2.1c-.3-2.2.7-3.1,2.9-2.7.4,0,.8.2,1,.3.3.2.5.3.6.3.1,0,.4,0,.6,0,1,0,1.9,0,2.8,0,.9,0,1.5,0,1.9,0,.6,0,1.1-.1,1.4-.2.4-.1.8-.3,1.3-.5.2-.1.5-.2.9-.1.3,0,.6,0,1,.2.3.1.6.2.9.4.3.2.4.4.5.6.1.3.2.6.2,1,0,.3,0,.8,0,1.3,0,.5-.1.9-.1,1.4,0,.5,0,1.1,0,1.7s-.2,1.1-.6,1.6c-.4.5-.9.8-1.6.9-1,.2-1.9.2-2.6-.2-.1,0-.4,0-.7-.1-.4,0-.9,0-1.4,0s-1.1,0-1.8,0c-.6,0-1.2,0-1.8,0-.5,0-.8.2-.7.5,0,0,0,.2,0,.3,0,.1,0,.4.1.7.2,1.1.6,1.6,1.4,1.6.8,0,1.7-.1,2.6-.2.9-.1,1.7-.2,2.5-.4.8-.1,1.5-.3,2.1-.4.6-.1,1.1-.3,1.4-.4.7-.2,1.2-.1,1.4.2.2.3.2.5,0,.7-.1.2-.4.4-.7.6-.8.5-1.6.9-2.4,1.3-.8.4-1.6.8-2.5,1.1-.9.4-1.8.7-2.8,1.1s-2.1.7-3.3,1.1c-1.1.4-2,.6-2.7.6s-1.3-.2-1.8-.8c-.4-.4-.6-1-.7-1.6s0-1,.4-1.4c.2-.2.3-.4.4-.8,0-.4,0-.9,0-1.5h0ZM320.4,227.9c0-.3-.1-.6-.3-.7s-.6-.2-1.1-.2-1.1,0-1.9,0-1.6.1-2.4.2c-.4,0-.6.1-.7.3-.1.2-.2.6-.2,1.3,0,.6,0,1,.1,1.2.1.2.4.3.7.3h4.5c.5,0,.8,0,1-.2.1-.2.2-.4.3-.7,0-.2,0-.5,0-.6v-.8h0ZM329.6,247.2c0-.5,0-.8-.2-1s-.4-.2-.7-.2h-2.8c-.9,0-1.8,0-2.7,0-.4,0-.7,0-.8.2s-.2.5-.2,1.1,0,.9.2,1.1c.1.1.4.2.7.2h5.6c.4,0,.6,0,.7-.3s.2-.6.2-1.2h0ZM345.3,236.4c0,.7-.3,1.3-.7,1.7-.4.5-1.4.9-2.8,1.2-1.3.3-2.9.5-4.7.6s-3.8-.1-5.9-.6c-1.5-.3-2.5-.8-3.1-1.3-.6-.5-1-1.3-1.1-2.4-.2-1.3-.3-2.7-.3-4.1s0-2.9.1-4.5c.1-1.3.4-2.2.7-2.6.4-.4,1-.6,2-.5.6,0,1.1.2,1.4.4.2.1.3.2.4.2s.3,0,.5,0c1,0,1.9,0,2.8,0,.9,0,1.7,0,2.3,0s1.3-.2,2.3-.5c.8-.3,1.6-.3,2.4,0,.8.3,1.2.7,1.3,1.3,0,.4.1.8.1,1.3s0,1,0,1.6-.1,1-.2,1.5-.2.9-.3,1.2c-.3.7-.7,1.2-1.2,1.6s-1,.5-1.4.5c-.5,0-.9,0-1.1-.2-.3,0-.6-.1-1-.2-.1,0-.4,0-.8,0-.4,0-.9,0-1.4,0-.5,0-1.1,0-1.8,0h-1.9c-.5,0-.7.2-.7.6s0,.8,0,1.1.1.5.3.7c.1.2.4.3.7.4.3.1.7.2,1.2.3s1.2.1,2.1.1c.9,0,1.8,0,2.7,0s1.9,0,2.8-.1c.9,0,1.6-.2,2.2-.3.9-.2,1.4-.2,1.8,0s.4.5.4.9h0ZM342.2,261.1c-.3.3-.6.5-.9.5s-1-.2-2-.6c-1.6-.6-3.2-1.3-4.8-2-1.5-.7-3.1-1.4-4.8-2.2-.8-.3-1.3-.8-1.5-1.5-.1-.7,0-1.3.5-1.9.6-.7,1.4-1.1,2.3-1.1s1.8.4,2.7,1.1c1.4,1.2,2.8,2.2,3.9,3.1s2.4,1.8,3.5,2.5c.6.4,1,.8,1.1,1,.1.3,0,.6-.1.9h0ZM338,228.1c0-.4,0-.6-.3-.7-.2-.1-.5-.2-1-.2-.3,0-.8,0-1.7,0-.9,0-1.8,0-2.7,0-.3,0-.5,0-.6.2-.1.2-.2.6-.3,1.4s0,1.3,0,1.5c.1.2.3.3.7.3h4c.6,0,1,0,1.2-.2.2-.1.4-.4.4-.8,0-.2,0-.4.1-.7s.1-.5.1-.7h0Z"/>
    <path d="M316.1,267.9c.6,0,3.7-.1,4.6-.2.3,0,.6,0,.8-.1l.7.8c-.2.1-.5.4-.7.5-1.1.9-3.4,2.8-4.6,3.8,2.3-.2,5-.4,7.1-.4v1c-1.4,0-2.8,0-3.7,0-1.5.2-2.9,1.5-2.9,2.9s1.2,2,2.6,2.2c.9.1,1.6,0,2.1,0l-.2,1.1c-3.6.1-5.5-1-5.5-3.2s1-2.4,1.8-2.9c-1.6.1-3.6.4-5.5.7v-1c.7,0,1.7-.2,2.5-.3,1.6-1.1,4-3.3,5-4.1-.7,0-3.4.2-4,.2-.4,0-.8,0-1.1,0v-1.1c.3,0,.6,0,1.1,0h0Z"/>
    <path d="M336.1,268.6c-.6,1-2.1,3.6-2.8,5,.7-.7,1.5-1,2.3-1s1.7.6,1.7,1.8c0,.9,0,2,0,2.8,0,.8.6,1.1,1.2,1.1,1.7,0,2.7-2.1,3.1-3.6l.9.7c-.8,2.3-2,4-4.1,4s-2-1-2.1-1.8c0-.9,0-2,0-2.8,0-.7-.4-1.1-1.1-1.1-1.2,0-2.4,1.2-3,2.4-.5.9-1.1,2.6-1.3,3.4l-1.1-.4c1.1-3,4.3-9,5.1-10.4.2-.3.3-.7.5-1.1l1.2.5c-.1.2-.3.4-.5.7h0Z"/>
  </g>
  <g id="_x34_">
    <path d="M276,256.6c-.3.6-.6,1.2-.9,1.6-.3.5-.6.9-.9,1.2s-.6.7-1,1-.8.7-1.3,1c-1.1.8-2.2,1.2-3.5,1-1.2-.1-2.5-.6-4-1.5-2-1.2-3.6-2.3-4.9-3.2-1.3-.9-2.5-1.6-3.4-2.2-.3-.2-.6-.3-.7-.3s-.3.3-.6.7c-1,1.6-2.1,2.9-3.2,3.7-1.1.8-2.5,1.3-4.3,1.7-.8.2-1.4.3-1.9.3-.5,0-.9,0-1.2,0s-.6-.2-.9-.4c-.3-.2-.5-.6-.9-1-.5-.7-.7-1.4-.7-2.1,0-.7.2-1.5.6-2.3.3-.7.5-1.3.6-2,.1-.7.2-1.4.2-2.2,0-.7-.1-1.1-.3-1.2-.1-.1-.4-.2-.9-.1-.3,0-.6.1-.7.2-.1.1-.3.5-.6,1,0,.2-.1.3-.2.4s-.1.2-.2.4c-1,1.8-2.1,3.2-3.4,4.2-1.3,1-2.9,1.8-4.9,2.4-.6.2-1.2.2-1.8,0-.6-.1-1.1-.4-1.6-.7-.5-.4-.9-.8-1.3-1.4-.4-.6-.7-1.1-.9-1.8-.2-.6-.2-.9-.1-1.1s.4-.2.9-.3c1,0,1.9-.2,2.9-.4,1-.2,1.9-.6,2.9-1s1.7-.9,2.5-1.5c.7-.6,1.3-1.2,1.7-1.9s.7-1.5.8-2.4,0-1.8-.1-2.6c-.2-.9-.1-1.7,0-2.4.2-.7.8-1.3,1.7-1.6.6-.2,1.1,0,1.6.4.3.2.5.4.6.4.1,0,.4.1.9,0,.7,0,1.4-.1,2-.1s1.3,0,2-.1c.5,0,.7-.3.6-.7,0-.4,0-.7,0-.8.1-1.4.1-3.1.1-5.1s0-1-.1-1.1c0-.1-.3-.2-.5-.2-1,0-2,0-2.9,0s-1.8,0-2.6,0-1.4,0-2,.1-.9.1-1.2.2c-.5.1-.9.3-1.2.5s-.5.5-.7.9-.3,1-.3,1.8c0,.8-.1,1.8-.1,3.1,0,.7-.1,1.2-.3,1.5s-.6.5-1.2.6c-.4,0-.7,0-1-.2s-.5-.5-.6-.9c-.1-.7-.2-1.5-.3-2.4s-.1-1.8-.2-2.7,0-1.7,0-2.4c0-.7.1-1.2.2-1.5.3-.9.8-1.5,1.5-1.9s1.3-.3,1.9,0c.3.2,1,.4,1.9.6,1,.2,2,.2,3,.1,1.1,0,2-.1,2.9-.1.9,0,1.8,0,2.6,0,.5,0,.8-.1.9-.2.1-.1.2-.3.2-.7s0-.5-.2-.6c-.1,0-.4-.1-.8-.1-1.2,0-2.2,0-2.9,0s-1.4,0-1.9,0-.9,0-1.1,0c-.3,0-.5,0-.6.1-1.1.3-1.8.1-1.9-.6,0-.2,0-.5,0-.9,0-.3.2-.6.5-.8.4-.3.7-.5,1-.6s.6,0,.9,0c.1,0,.2,0,.4,0,.1,0,.4,0,.6,0s.7,0,1,0,.7-.1,1.3-.2c.4-.1,1.3-.2,2.4-.2,1.2,0,2.6,0,4.2,0s3.3.1,5.2.3,3.8.3,5.7.6c.3,0,.5,0,.7,0,.2,0,.3,0,.5.1.2,0,.3.3.3.6,0,.3-.1.6-.4.9-.2.2-.6.4-1.2.6-.6.1-1.4.2-2.4.2-.8,0-1.6,0-2.4,0-.8,0-1.5,0-2.2,0s-.8,0-.9.1c-.1.1-.2.3-.2.5s0,.5.2.5.4,0,.8,0c1.3,0,2.6,0,4,.2,1.4,0,3,.1,4.7.3.5,0,.9,0,1.1,0,.3,0,.6-.2,1-.5.5-.4,1.2-.4,1.9,0,.7.3,1.3.8,1.8,1.6.4.6.6,1.5.6,2.7s-.2,2.9-.5,5c-.2.9-.9,1.6-2.2,1.8-1.1.2-1.7-.3-1.6-1.4,0-1.3.1-2.4.1-3.2s0-1.4-.1-1.9-.3-.7-.5-.9c-.2-.2-.5-.3-.9-.4-.2,0-.6,0-1.2-.1-.6,0-1.3,0-2.1-.1-.8,0-1.8,0-2.8,0-1,0-2.1,0-3.3,0s-.7,0-.8.3-.2.6-.2,1.2c0,1,0,1.9,0,2.8v2.5c0,.5,0,.7.1.9s.2.2.5.2c1.4,0,2.8,0,4.2,0s2.7.1,4,.3c1,0,1.6.2,1.9.4.2.2.3.4.3.7,0,.4-.2.6-.4.8s-.9.2-1.9.1c-1.4,0-2.9-.1-4.5-.2-1.6,0-3.2,0-4.8,0s-3.2,0-4.8,0-3,.1-4.4.3c-.4,0-.7.1-.8.2-.1,0-.1.2-.1.3,0,.2,0,.4.1.5,0,0,.4.1.9.1,1.6,0,3.1,0,4.6,0,1.5,0,2.9,0,4.4,0s2.9,0,4.3,0c1.4,0,2.9.1,4.4.2.8,0,1.3.1,1.5.2.3.1.4.3.5.6,0,.8-.4,1.2-1.2,1.1-1,0-1.9,0-2.8,0-.9,0-2,0-3.2,0s-2.9,0-4.9,0-4.5.2-7.6.3c-.4,0-.7.1-.9.2-.1.1-.2.3-.3.5,0,.2,0,.3.1.4s.4,0,.9,0c2.2,0,4.4-.1,6.6-.1,2.2,0,4.3,0,6.2,0s3.6,0,5,0,2.4,0,3,0c1.3.1,1.9.5,1.8,1.1,0,.3-.2.6-.5.9-.3.2-.7.4-1.3.4h-2.1c-.7,0-.9.2-.7.5.4.6.6,1.1.4,1.5-.2.4-.8.7-1.8.7-.5,0-.7.1-.7.2,0,.1.2.3.7.4,3,1,5.8,1.7,8.3,2.1s5,.5,7.3.4c.6,0,1,0,1.1.2,0,.2,0,.4-.1.7h0,0ZM246.3,237.3c.2-.2.3-.4.2-.5,0-.1-.2-.2-.5-.2-1.3.2-2.6.4-3.8.5-1.2.1-2.5.1-3.8.1s-.9.1-1.3.4c-.4.3-.5.6-.5,1,0,.5.3.9.9,1.1.6.2,1.5,0,2.9-.2,2.4-.5,4.4-1.2,5.9-2.2h0s0,0,0,0ZM245.5,235.1c-.6,0-1.1-.1-1.5-.2-.4,0-.8-.1-1.2-.2-.3,0-.6-.1-.9-.2-.3,0-.6-.1-.9-.2-1-.3-1.8-.4-2.4-.3-.6.1-1,.4-1.1.9-.1.3,0,.6.2.9.2.3.8.5,1.5.6,1,.2,2.1.2,3.3.1,1.1,0,2.1-.2,3-.4,1-.4,1-.7,0-.9h0ZM257,251c.4-.8.3-1.2-.3-1.2h-1.6c-1.1,0-2.2,0-3.2,0-1,0-2.1,0-3.3.1-.5,0-.8.1-1,.3s-.2.5-.3,1.1c-.1.8-.2,1.6-.3,2.3s0,1.3,0,1.7c0,.7.2,1.2.5,1.4s.7.3,1.4.2c1.4-.2,2.9-.7,4.4-1.7.4-.3.7-.5.7-.7s-.2-.4-.6-.6c-.8-.4-1.4-.7-1.8-.8-.4,0-.8-.1-1.1-.2-.2,0-.5,0-.7-.2-.2-.1-.4-.3-.5-.6-.1-.4,0-.7,0-.9s.4-.5.9-.7c.3-.2.7-.2,1.2-.1.5,0,1.2.3,2,.6.3.1.6.3.9.4.3.1.6.3.9.3.5.2.8.3,1.1.2s.5-.4.9-1h0ZM263.3,238.5c-.8-.2-1.5-.3-2-.4s-1.1-.2-1.6-.4-1-.3-1.4-.4c-.5-.1-.9-.3-1.4-.5-1.6-.6-2.6-.4-2.8.7-.2.9.3,1.5,1.8,1.7.7,0,1.4.1,2,.2.6,0,1.2,0,1.8,0,.6,0,1.1,0,1.7,0s1.2,0,1.8,0c.6,0,.9-.2.9-.4,0-.2-.2-.4-.6-.5h0ZM255.7,236.2c1,0,2-.1,2.9-.2.9,0,1.9,0,2.9,0,.5,0,.9-.2,1-.4.1-.2.2-.5.1-.9-.3-1.1-1.1-1.4-2.5-1.1-1.1.3-2,.6-2.7.9-.7.3-1.4.6-2.1.9-.7.2-.9.5-.8.6.1.2.6.2,1.3.2h0Z"/>
    <path d="M240.2,268.8c0,1.7-.2,5.2-.2,7.5s1,2.2,2.5,2.2c2.8,0,4.3-1.5,5.3-3l.7.9c-1,1.4-2.9,3.2-6.1,3.2s-3.5-.8-3.5-3.2.2-5.9.2-7.5,0-1-.1-1.4h1.3c0,.5-.1.9-.1,1.4h0Z"/>
    <path d="M260.4,268.6c-.6,1-2.1,3.6-2.8,5,.7-.7,1.5-1,2.3-1s1.7.6,1.7,1.8c0,.9,0,2,0,2.8,0,.8.6,1.1,1.2,1.1,1.7,0,2.7-2.1,3.1-3.6l.9.7c-.8,2.3-2,4-4.1,4s-2-1-2.1-1.8c0-.9,0-2,0-2.8,0-.7-.4-1.1-1.1-1.1-1.2,0-2.4,1.2-3,2.4-.5.9-1.1,2.6-1.3,3.4l-1.1-.4c1.1-3,4.3-9,5.2-10.4.2-.3.3-.7.5-1.1l1.2.5c-.1.2-.3.4-.5.7h0Z"/>
  </g>
  <g id="_x33_">
    <path d="M158.6,248.5c-.3,0-.4.5-.4,1.4,0,1.7,0,3.1-.1,4.3-.1,1.2-.3,2.2-.5,3-.2.8-.5,1.5-.8,2-.3.5-.8,1-1.2,1.4s-1,.6-1.4.7-.9,0-1.4-.1c-.4-.2-.8-.4-1.1-.8-.3-.4-.6-.8-.8-1.3-.2-1,0-1.6.6-1.9,1.3-.6,2.2-1.4,2.8-2.4.5-1,.7-2.4.6-4.3,0-.5-.2-.6-.6-.4-.8.3-1.4.4-1.8.3-.4-.1-.6-.5-.5-1.1,0-.8.3-1.4.6-1.9.3-.5.8-.9,1.6-1.1.2-.1.4-.3.4-.6,0-.6.3-1.1.7-1.4.5-.4,1-.5,1.5-.3s.9.6,1.1,1.3c.1.4.2.6.3.6.9-.2,1.7-.3,2.4-.4s1.5-.2,2.2-.2c.3,0,.4-.1.5-.2,0-.1.1-.4.1-.7s0-.8-.1-1.1c0-.3-.3-.4-.6-.3-1.1,0-1.9.2-2.5.4-.6.2-1.2.4-1.9.6-.6.2-1.1.2-1.7,0-.6-.2-.9-.7-1-1.5-.1-1,0-1.9.3-2.7.2-.5.4-1.2.5-2,0-.8.1-1.5.1-2.1s.1-.9.4-1.2.5-.4.9-.4.8.4,1,1.1c.3.7.3,1.5.2,2.4-.2,1.2-.1,2.1.1,2.6.2.5.6.8,1,.7,1.2-.1,2.2-.2,3-.3.9,0,1.7,0,2.4,0s1.6,0,2.4.1c.9,0,1.9.2,3.1.4.2,0,.4,0,.5,0,.1-.1.2-.4.3-.8.1-.8.2-1.6.3-2.5,0-.8,0-1.7,0-2.6s.1-.9.3-1.1.6-.2,1.1,0c.4.1.6.4.8.7.1.4.2,1,.3,2,0,.7,0,1.2.1,1.8,0,.5.2,1.2.4,2,.3,1.1.2,2-.1,2.7s-.9,1.1-1.5,1.2c-.6.1-1.1,0-1.5-.3-.3-.3-.6-.4-.9-.4-1.1,0-2.2-.1-3.1-.2-.2,0-.4,0-.5.2-.1.2-.2.5-.3.9-.2.7,0,1,.4,1.1.5,0,1,.2,1.7.3.6.1,1.4.3,2.4.6.7.2,1.3,0,1.9-.7.3-.3.6-.4,1-.3s.8.3,1.1.8c.5.8.6,2.1.4,3.7,0,.5-.1,1.3-.1,2.3s0,1.9.1,2.7c.1,1.1.2,2,.3,2.6,0,.7,0,1.2-.1,1.7-.1.5-.3.8-.6,1.1-.3.3-.7.5-1.3.8-.7.3-1.2.3-1.4,0-.3-.3-.4-1.2-.4-2.7v-7.9c0-1.1-.4-1.7-1.2-1.9-.7-.2-1.4-.3-2.2-.4s-1.5-.1-2.4-.1-.4,0-.5.2c-.1.1-.3.3-.4.6-.2.2-.4.7-.8,1.4-.4.7-.7,1.3-1,1.8,0,0,0,.2,0,.3,0,.1.2.3.5.5.4.3.7.4,1.1.5.3,0,.8-.1,1.4-.5.2-.1.3-.3.4-.5s0-.4-.2-.7c-.6-.8-.8-1.6-.5-2.4.4-.8.9-1,1.4-.5.8.7,1.6,1.4,2.2,2.2.7.8,1.2,1.5,1.7,2.2.4.6.5,1.2.3,1.8s-.5.8-.9.7c-.4-.1-.9-.4-1.6-.9-.2-.2-.4-.3-.6-.3s-.3.1-.6.3c-1,.6-1.8,1.1-2.4,1.4-.7.3-1.2.5-1.7.6s-.9,0-1.2-.1c-.3-.2-.6-.4-.9-.7s-.6-.6-.9-.7c-.4-.2-.7-.2-1-.2-1,0-1.6,0-1.9-.1-.3-.2-.4-.6-.2-1.3.2-.6.4-1,.5-1.2.2-.2.4-.3.8-.3s.8-.1,1-.4c.3-.5.6-1,.9-1.5.3-.4.5-.8.6-1,.3-.6.2-.9-.3-.9-.6,0-1.2,0-1.8.2-.6,0-1,.1-1.5.3h0s0,0,0,0ZM172.8,230.7c-.4,0-.8-.1-1.4-.2-.5,0-1,0-1.3,0s-.4.1-.4.3c.2.6.2,1.1.1,1.5,0,.4-.3.9-.5,1.4-.1.3-.5.7-1,1.2-.3.3-.3.6.1.9.4.3.8.7,1.2,1.1.4.4.8.7,1.1,1.1.4.4.4,1,.1,1.8-.2.5-.6.6-1.2.3-.6-.4-1.2-.8-1.8-1.2-.6-.4-1.2-.8-1.7-1.1s-.4-.2-.6-.2c-.1,0-.3.1-.6.3-.8.7-1.4,1.2-2,1.6s-.9.6-1.2.7c-.9.5-1.6.2-1.9-.8-.3-.7-.1-1.2.7-1.6.3-.2.6-.4,1-.6.3-.2.7-.4,1-.7.3-.2.4-.4.4-.6,0-.1-.2-.3-.5-.5-.4-.3-.7-.5-.9-.6s-.5-.3-.7-.3c-1-.5-1.1-1.2-.4-2.1.4-.4.6-.9.5-1.3-.1-.4-.3-.6-.6-.5-.9,0-1.9.3-2.8.5s-1.7.6-2.4.9c-1,.5-1.8.7-2.3.6s-.8-.6-.7-1.2c.1-1.5.8-2.7,1.9-3.5.7-.6,1.4-.7,2-.3.3.2.8.3,1.4.4.6,0,1.3,0,2.1-.1.5,0,1-.1,1.6-.2.6,0,1.2-.1,1.8-.2.6,0,.8-.5.6-1.4-.2-.9-.1-1.7.4-2.4.4-.5,1.1-.6,2.1-.1.6.2,1.1.4,1.5.6s.6.4.8.6c.2.2.3.5.4.7,0,.3,0,.6,0,1.1s0,.6.1.6c0,.1.2.1.4.1,1.3,0,2.4,0,3.2,0,.8,0,1.4,0,1.9.1s.8.1.9.2.3.2.4.4c.4.7.3,1.4-.2,1.9-.5.6-1.4.8-2.8.6h0c0,0,0,0,0,0ZM166.9,232c.3-.3.4-.7.3-1.1-.1-.4-.3-.7-.6-.7-1.1,0-2.3,0-3.5.2-.3,0-.5.2-.6.6,0,.4,0,.7.4,1,.8.7,1.5,1.2,2.2,1.5.4.2.7.1.9-.3.1-.2.3-.4.4-.6s.3-.4.5-.5h0ZM175.7,230.3c1-.4,2.2-1.1,3.5-2.1,1.4-1,2.8-2.4,4.4-4.3,1-1.1,1.6-1.1,1.9.2.1.7.4,1.1.8,1.3.4.2.8.3,1.2.4.4,0,.9.1,1.6.1s1.3.1,1.6.5c.3.3.6.9.9,1.8.2.5.2.9,0,1.5s-.4.9-.8,1.3c-.3.4-.5.6-.6.6-.1.2-.2.4-.1.5,0,.1.2.2.4.2.8,0,1.5,0,2.2,0,.7,0,1.4,0,2,0,.4,0,.7,0,.9.3.1.2.2.6.3,1.1,0,.6,0,1-.2,1.1-.2.2-.4.3-.7.3-.7,0-1.4.1-2.2.2-.7,0-1.5,0-2.4,0-.3,0-.5.1-.6.3,0,.2-.1.7-.2,1.6,0,.9,0,1.5.1,1.8.1.3.3.5.6.5h1.6c.5,0,1,0,1.5,0,.5,0,.8.2.9.3.1.2.2.6.2,1.1s-.2.7-.6,1c-.4.3-.9.5-1.5.5s-.6,0-1,0c-.4,0-.7,0-1,0s-.6.1-.7.3c-.1.2-.2.7-.1,1.6,0,.6,0,.9.2,1.1s.4.2.9.2h2.1c1,0,1.6.2,1.8.3.3.2.4.5.4,1s-.1.9-.5,1.3c-.3.4-.8.6-1.3.6h-1.3c-.4,0-.8,0-1.2,0-.4,0-.6.2-.7.4-.1.2-.1.7-.1,1.4s0,1.4.2,1.6.4.3.8.3h4.7c1.6,0,3,0,4.2,0,.3,0,.5,0,.6.2,0,.1,0,.5,0,1-.2,1.1-.6,2-1,2.7s-.9,1.2-1.4,1.5c-.4.3-1,.4-1.9.3s-2.2-.6-4-1.4c-.6-.2-1.3-.5-2.2-.6-.8-.2-1.7-.3-2.6-.3-.9,0-1.8,0-2.7,0s-1.7.1-2.5.3c-.3,0-.5.2-.6.4-.1.2-.2.7-.3,1.4,0,1.3-.3,2.2-.7,2.7-.4.5-1.1.7-2.2.7-.3,0-.5,0-.7-.2-.2-.1-.3-.4-.4-.8,0-.4-.1-.9-.1-1.6,0-.7,0-1.6.2-2.7.1-1.5.3-3,.4-4.5s.2-3.1.3-4.9c0-1.8.1-3.7.1-5.8,0-2.1,0-4.5,0-7.2,0-.3,0-.5-.2-.6s-.4,0-.8.2c-.8.3-1.5,0-2.1-.6-.9-1.2-.6-2,.6-2.5h0ZM186.1,238.2c0-1.1,0-1.9,0-2.2,0-.4-.3-.6-.7-.6-.4,0-.9,0-1.3,0h-1.8c-.7,0-1,.7-.9,2.2,0,.9.2,1.4.3,1.6.1.2.4.3.9.3.5,0,1,0,1.5,0s1,0,1.5,0c.2,0,.4,0,.5-.2,0-.1.1-.5.1-1h0ZM186.6,229.1c-.1-1-.6-1.6-1.4-1.9-.3-.1-.8,0-1.3.5-.3.2-.6.5-.8.7-.3.2-.6.5-.9.8-.2.2-.4.4-.5.6-.1.2-.2.6-.2,1.1s0,.9.1,1.1c.1.1.3.2.6.2.9,0,1.8,0,2.6,0,.5,0,.8,0,1-.2.2-.1.4-.4.5-.7.2-.7.3-1.4.3-2.2h0ZM186.1,244.4c0-1,0-1.6-.2-1.8s-.4-.3-.7-.3c-.5,0-1,0-1.6,0-.6,0-1.1,0-1.6.1-.2,0-.4.2-.5.3s-.1.7-.1,1.5c0,.7,0,1.1.2,1.3.1.2.4.2.9.2.4,0,.9,0,1.4,0,.5,0,.9,0,1.4,0,.3,0,.5,0,.6-.2.1-.2.2-.5.2-1h0ZM186.1,250.9c0-.9-.1-1.5-.2-1.7s-.3-.4-.5-.4c-.5,0-1,0-1.5,0s-1,0-1.5.2c-.4,0-.6.1-.7.3s-.1.6-.1,1.3c0,.9.1,1.6.2,1.8.1.2.3.4.7.4.5,0,1,0,1.5,0s1,0,1.4,0c.3,0,.5-.1.6-.3.1-.2.2-.7.2-1.4h0Z"/>
    <path d="M172.8,271.5c.6-1.6,2.2-3.5,4.1-3.5s3.3,2,3.3,5-2.6,5.8-6.2,6.5l-.6-.9c3.2-.5,5.7-1.8,5.7-5.5s-.8-4.1-2.4-4.1-3.6,2.7-3.8,4.6c0,.6,0,1.1,0,1.9h-1c0-.5-.2-1.3-.2-2.2,0-1.4.3-3.6.5-4.8,0-.4,0-.8.1-1.2h1.2c-.3,1.2-.6,3.2-.7,4.3h0Z"/>
  </g>
  <g id="_x32_">
    <path d="M105.6,233.6c.7,0,1.1.1,1.4.1s.5,0,.6-.2c.3-.3.7-.5,1.2-.6.4-.1.8-.1,1.3,0s.8.2,1.2.4c.4.2.7.6.9,1,.4.7.6,1.3.6,1.9,0,.6,0,1.2-.3,1.7,0,.2-.3.9-.5,2-.2,1.1-.5,2.3-.7,3.6-.2.9-.4,1.6-.8,2.2-.3.6-.7,1.1-1.1,1.4s-.8.5-1.2.4c-.4,0-.8-.2-1.1-.5-.5-.5-.9-.7-1.2-.7h-.8c-.3,0-.5.2-.6.6,0,1.1,0,2.1.3,3,.3.9.8,1.7,1.6,2.3.8.6,1.9,1.1,3.2,1.4s3.1.4,5.2.3c1.8,0,3.5-.3,4.9-.8,1.4-.4,2.5-1,3.3-1.6.4-.3.6-.4.8-.2s.1.7,0,1.5c-.8,2.8-1.9,5-3.4,6.4s-3.2,2.2-5.1,2.3c-1.2,0-2.9-.3-4.9-1.2-2.1-.9-4.2-2.2-6.6-4-.6-.4-1.2-.9-1.6-1.5-.4-.5-.8-1.1-1.1-1.9-.3-.7-.4-1.6-.5-2.5,0-1,0-2.2,0-3.6,0-.2,0-.4-.2-.5-.2-.1-.6-.1-1.2,0-.6,0-1,.1-1.1.2-.2,0-.3.2-.3.4,0,1.4-.3,2.7-.7,3.8-.4,1.1-1,2.1-1.7,3.1-.6.9-1.3,1.7-2.1,2.4-.9.8-1.8,1.5-2.8,2-1,.6-2.1,1.1-3.2,1.5-1.1.4-2.1.7-3.1.8-2.3.2-4.1,0-5.4-.8-1.3-.8-2.1-1.8-2.3-3.2,0-.5,0-.8,0-.9,0-.1.3-.2.8-.1,1.8,0,3.5,0,5.4-.3s3.5-.7,5.1-1.4c2.4-.9,3.9-2,4.8-3.1.8-1.1,1.2-2.3,1.2-3.6s-.2-.6-.6-.6h-.6c-.2,0-.3,0-.5,0-.3,0-.6.2-.8.4-.4.4-.9.7-1.3.8-.4.1-.7.1-1,0-.4-.1-.8-.5-1.2-1.2s-.7-1.4-.8-2.3c-.2-1.6-.4-2.7-.5-3.4-.1-.7-.2-1.3-.4-1.8-.3-1.2-.4-2.3-.3-3.3.1-1,.4-1.8.9-2.2.4-.4.8-.7,1.2-.7.4,0,.8,0,1.2.1.3.1.6.2.7.4.2.2.5.3.9.2,1.7-.2,3-.4,4.1-.4,1.1,0,1.9-.1,2.6-.1,2.2,0,4,0,5.3,0s2.3.1,3.1.2h0s0,0,0,0ZM96.3,226.4c0,.8-.2,1.4-.4,1.8-.2.4-.4.7-.8,1-.3.2-.6.4-.9.6-.3.2-.7.4-1.3.6-.6.2-1.3.5-2.3.9-1,.4-2.3.8-3.9,1.4-.6.2-1.3.4-2,.5s-1.7.3-3,.5c-.7,0-1.2,0-1.5,0s-.5-.4-.7-.9c-.3-.8.2-1.4,1.6-1.9,1-.3,2.1-.7,3.1-1.2,1-.4,2-.9,2.9-1.4.9-.5,1.8-1,2.5-1.5.7-.5,1.3-.9,1.6-1.3.9-1,1.6-1.6,2.2-1.8.5-.2,1.1-.2,1.6,0,.9.5,1.3,1.3,1.2,2.6ZM107.3,239.4c.1-1.1,0-1.8-.1-2.2-.2-.3-.9-.6-2-.7-.5,0-1.3,0-2.3,0s-2.1,0-3.4,0-2.6.1-4,.2-2.8.2-4.1.4c-.3,0-.5.2-.5.6,0,.6,0,1.2,0,1.9s0,1.3.2,2.2c0,.4.3.6.7.6,1.7,0,3.3.1,4.8.2,1.5,0,2.8,0,3.9,0s2,0,2.7,0c.7,0,1.1,0,1.3,0,1-.2,1.7-.4,2-.8.3-.4.5-1.2.6-2.4ZM119.5,232.6c0,.5-.2.8-.5,1-.3.2-.8.2-1.6,0-2.8-.6-5.4-1.4-7.7-2.5-1.1-.5-1.9-.9-2.5-1.2-.6-.3-1.1-.5-1.4-.6-.9-.3-1.5-.7-1.8-1.1-.3-.4-.5-.9-.6-1.5,0-1.2.4-2.1,1.3-2.7,1-.7,1.9-.7,2.7,0,.3.3.7.6,1.2,1s1.3.9,2.2,1.5c1.3.8,2.7,1.6,4,2.3s2.6,1.4,3.8,2.1c.4.2.7.5.8.8.2.3.2.6.2,1h0s0,0,0,0Z"/>
    <path d="M98.3,268.6c0,.3-.2.8-.2,1.2,1-.1,2-.3,2.9-.5v1c-1,.2-2.1.4-3.1.5-.2.6-.3,1.3-.5,2-.5,2.1-1.5,5.1-2.3,6.7l-1.2-.4c.9-1.5,1.9-4.5,2.5-6.6.1-.5.3-1.1.4-1.6-.5,0-1,0-1.4,0-.6,0-1.2,0-1.7,0v-1c.7,0,1.2.1,1.7.1s1,0,1.6,0c.1-.6.2-1.1.2-1.4,0-.4,0-.9,0-1.2h1.2c0,.4-.2,1-.2,1.2h0s0,0,0,0ZM100,276.8c0,.7.4,1.4,2.6,1.4s2-.1,2.8-.3v1.1c-.8.1-1.8.2-2.9.2-2.3,0-3.5-.7-3.5-2.1s0-1.1.2-1.7h1c-.1.6-.2,1-.2,1.4h0ZM102.7,271.8c.9,0,1.8,0,2.5.1v1c-.8-.1-1.7-.2-2.5-.2s-1.8,0-2.7.2v-1c.8,0,1.7-.1,2.7-.1h0ZM104.8,269.9l-.7.3c-.3-.6-.8-1.5-1.2-2l.7-.3c.4.5.9,1.4,1.2,2ZM106.5,269.3l-.7.3c-.3-.7-.8-1.5-1.2-2l.7-.3c.4.5,1,1.5,1.2,2h0Z"/>
  </g>
  <g id="_x31_">
    <path d="M44.8,232.2c-.2.4-.5.7-1,.9-.5.2-1.1.4-1.8.4-1.5,0-3,0-4.5,0-1.5,0-3.2,0-5.1.2-.5,0-.9.1-1,.2-.2,0-.4.2-.6.5-.6.8-1.4,1.5-2.2,2.1-.8.6-1.8,1.2-3,1.9-.2,0-.4.1-.7.2s-.5,0-.8,0c-.2,0-.4,0-.4.1s-.2.5-.2,1.1c0,.7-.1,1.4-.1,2.1,0,.7,0,1.3-.1,2-.2,1.6-.5,2.7-1,3-.4.3-.7.5-1,.5-.3,0-.7,0-1.2-.2-.1,0-.4,0-.8,0-.4,0-1.1,0-2.1,0-.3,0-.6,0-.7.2-.1.1-.2.5-.2,1.1,0,.6,0,.9.1,1.1.1.2.4.2.7.2,1.2,0,2.3,0,3.4.1,1,0,2,.1,2.8.2.7,0,1.1.3,1.4.6.2.4.2.8,0,1.2-.2.6-.5,1-.7,1.1-.2.2-.6.3-1.1.2-1.1,0-2.1,0-3,0-.9,0-1.8,0-2.6,0s-.6,0-.8.2c-.1.1-.2.5-.2,1.1,0,1.1,0,2,0,2.6,0,.7,0,1.4,0,2.3,0,.8-.3,1.5-.8,2-.5.5-1.3.6-2.5.3-.4-.1-.8-.3-1-.4-.3-.1-.5-.4-.6-.6s-.2-.6-.3-1.1c0-.5,0-1,0-1.7,0-.7.1-1.2.1-1.6,0-.4,0-1,.1-1.7,0-.6,0-.9-.1-1.1-.1-.2-.3-.2-.6-.2-1,0-1.9,0-2.8,0s-1.8.1-2.7.2c-.3,0-.7,0-1.1.2-.4,0-.9.2-1.5.5-.5.2-.9.3-1.3.2-.3,0-.6-.2-.7-.5-.1-.2-.2-.6-.1-.9s.2-.7.4-1.1c.8-1.3,1.5-2.1,2.3-2.4.7-.2,1.2-.2,1.4,0,.3.3.7.4,1.3.4.7,0,1.5,0,2.4,0,.9,0,1.7,0,2.5,0s.6,0,.7-.2.2-.6.3-1.2c0-.5,0-.9-.2-1-.2-.1-.5-.2-1-.2-.9,0-1.5.1-2.1.4-.3.1-.5.2-.7.2s-.4,0-.6-.1c-.3-.2-.6-.5-.8-.7-.2-.2-.4-.4-.5-.7s-.2-.6-.2-.9c0-.4,0-.8,0-1.3,0-1.2,0-2.4,0-3.7,0-1.3-.1-2.4-.2-3.4,0-1,0-1.7,0-2.1,0-.3.3-.6.5-.7.3-.2.6-.3,1.1-.3s.8,0,1.1,0c.5.2.9.3,1.3.4s.9,0,1.6,0c.5,0,.8-.1,1-.3.2-.2.3-.5.3-.9s0-.8-.2-.9-.5-.2-1-.2h-1.6c-.2,0-.4,0-.8,0s-.7.1-1.1.2c-.4,0-.8.2-1.1.3s-.6.2-.8.3c-.8.4-1.4.5-1.8.5-.4,0-.7-.2-.9-.5-.2-.3-.2-.6,0-1.1,0-.4.3-.8.6-1.1,1-1.1,1.7-1.7,2.2-2,.5-.2.9-.3,1.2-.2.3,0,.6.1.8.2.3,0,.6,0,1,0,.4,0,.8,0,1.2,0h1.1c.5,0,.8-.1,1-.3s.2-.8.2-1.8c0-1.4.3-2.2.8-2.6.5-.4,1.1-.4,1.8-.3.9.2,1.5.6,1.9,1.1.4.6.6,1.3.6,2.3,0,.6,0,1,.1,1.1.1.1.5.2,1,.3.7,0,1.4,0,2,0s1.3,0,2,.1c.6,0,1,.2,1.4.5.3.3.5.7.4,1.2-.2,1-.9,1.5-2.2,1.5s-1.4,0-2.1,0-1.3,0-1.9,0-.6,0-.8.2c-.1.2-.3.5-.3.9,0,.5,0,.8.1.9.1.2.6.2,1.3.2s1.5-.1,2-.3c.4-.2.9-.3,1.4-.2.5,0,1.1.4,1.6.9.5.4.9.9,1.1,1.3.1.3.2.5.3.5s.2,0,.4-.2c.6-.7,1.3-1.4,1.8-2.3s1.1-1.8,1.5-2.7.8-1.8,1-2.6.4-1.6.5-2.2c0-.6.2-1.1.4-1.5s.6-.6.9-.7.7-.2,1.1,0c.4,0,.8.3,1.2.6,1.5,1.2,1.8,2.6,1,4.3-.3.5-.4.9-.3,1,0,.1.3.2.7.2,1.5,0,2.9,0,4.2,0s2.7,0,4.3.1c.8,0,1.4.2,1.7.7.3.5.3,1,0,1.5h0ZM19.1,237.7c0-.9-.4-1.3-1.1-1.3-1,0-1.8,0-2.4,0h-3.3c-.5,0-1,0-1.5,0-.6,0-.9.1-1,.3s-.2.4-.2.9,0,.9.2,1c.1.1.5.2,1,.2,1.4,0,2.7,0,3.9,0s2.2.1,3.2.2c.5,0,.9,0,1-.2s.2-.6.2-1.1h0ZM18.7,243.3c0-.7,0-1.2-.1-1.4-.1-.2-.4-.3-.8-.4-1.2,0-2.4-.1-3.5-.2-1.1,0-2.2,0-3.4,0-.6,0-1,0-1.1.3s-.2.6-.2,1.3,0,1.1.2,1.3c.1.1.4.2.8.2h6.9c.5,0,.8,0,1-.3.1-.2.2-.5.3-.8h0ZM48.8,254.7c-.3.8-.8,1.7-1.5,2.6-.7,1-1.8,2-3,3.1-1,.9-2.2,1.4-3.5,1.5-1.3,0-2.8-.2-4.4-.7-2-.7-3.6-1.4-5-2.1-1.4-.7-2.5-1.4-3.4-2.1-.5-.4-1-.9-1.3-1.4-.4-.5-.6-1.1-.7-1.8,0-.6,0-1.3.3-2.1.3-.7.7-1.5,1.5-2.4.7-.8,1.3-1.5,1.8-2.1.5-.6.9-1.1,1.3-1.5.4-.4.7-.8,1-1.2.3-.4.6-.7.8-1.1.3-.5.5-.9.4-1.3,0-.4-.5-.6-1.1-.6s-.7,0-1.2,0-.9.1-1.3.2-.8.2-1.1.4c-.3.1-.6.3-.8.4-.6.5-1.1.7-1.6.7s-.7-.1-1-.4c-.2-.3-.3-.6-.3-1.1,0-.4.2-.9.4-1.3.9-1.4,1.5-2.3,1.9-2.6.4-.3.7-.4,1.1-.2.4.2,1,.3,1.7.2.8,0,1.6-.1,2.3-.1h2.4c.4,0,.7,0,1,0,.3,0,.5-.1.6-.2.8-.4,1.8,0,3,1.2.6.7.9,1.5.7,2.3-.1.9-.6,1.5-1.4,1.8-.4.2-.8.5-1.4.9s-1,.8-1.3,1.1c-.5.5-1.1,1.3-1.8,2.2s-1.5,1.8-2.1,2.7c-.5.6-.7,1.2-.6,1.9,0,.7.5,1.3,1.2,1.9.3.3,1,.6,2.1.8s2.3.4,3.6.4c1.8,0,3.5,0,5.2-.4,1.7-.4,3.3-.9,4.8-1.5.3-.2.6-.1.8,0,.2.2.2.7,0,1.3,0,0,0,0,0,0Z"/>
    <path d="M11.2,268.5c-.5,2.2-1,5.5-.4,8,.2-.6.5-1.6.8-2.3l.6.3c-.3,1-.8,2.5-1,3.2,0,.2,0,.5,0,.6,0,.1,0,.3,0,.5h-.9c-.3-.8-.8-2.7-.8-4.5s.4-4.6.6-5.9c0-.3,0-.7,0-.9h1.2c0,.4-.2.8-.2,1h0ZM18.8,268.2c0,.3,0,1.4,0,2.3.9,0,1.7-.2,2.4-.4v1.1c-.7.1-1.5.2-2.4.3v.5c0,3.4,0,5.8-3.1,7.6l-1-.8c.4-.2,1-.5,1.4-.9,1.7-1.4,1.7-3.1,1.7-6v-.4c-.6,0-1.3,0-1.9,0s-1.8,0-2.4-.1v-1c.6.1,1.6.2,2.4.2s1.2,0,1.9,0c0-.9,0-2,0-2.3,0-.3,0-.6-.1-.9h1.2c0,.2,0,.5,0,.8h0Z"/>
    <path d="M34.2,268.6c-.7,1-2.1,3.6-2.8,5,.7-.7,1.5-1,2.3-1s1.7.6,1.7,1.8c0,.9,0,2,0,2.8,0,.8.6,1.1,1.2,1.1,1.7,0,2.7-2.1,3.1-3.6l.9.7c-.8,2.3-2,4-4.1,4s-2-1-2.1-1.8c0-.9,0-2,0-2.8,0-.7-.4-1.1-1.1-1.1-1.2,0-2.4,1.2-3,2.4-.5.9-1.1,2.6-1.3,3.4l-1.1-.4c1.1-3,4.3-9,5.1-10.4.2-.3.3-.7.5-1.1l1.2.5c-.1.2-.3.4-.5.7h0Z"/>
  </g>
</svg>